<?xml version="1.0" standalone="no"?>
<!DOCTYPE svg PUBLIC "-//W3C//DTD SVG 1.1//EN" "http://www.w3.org/Graphics/SVG/1.1/DTD/svg11.dtd" >
<svg>
<metadata>
Created by FontForge 20090914 at Fri Feb 24 02:27:04 2012
 By root
MWC Solid - free for Bundy Fans
</metadata>
<defs>
<font id="BundyYellowSolid" horiz-adv-x="636" >
  <font-face 
    font-family="Bundy Yellow"
    font-weight="400"
    font-stretch="normal"
    units-per-em="2048"
    panose-1="2 0 0 0 0 0 0 0 0 0"
    ascent="1638"
    descent="-410"
    x-height="1795"
    cap-height="1800"
    bbox="-50.1667 -236.231 2865.44 1891"
    underline-thickness="25"
    underline-position="-38"
    unicode-range="U+0020-U+F002"
  />
<missing-glyph horiz-adv-x="500" 
d="M256 0v1280h1024v-1280h-1024zM288 32h960v1216h-960v-1216z" />
    <glyph glyph-name=".notdef" horiz-adv-x="500" 
d="M256 0v1280h1024v-1280h-1024zM288 32h960v1216h-960v-1216z" />
    <glyph glyph-name=".null" horiz-adv-x="0" 
 />
    <glyph glyph-name="nonmarkingreturn" horiz-adv-x="390" 
 />
    <glyph glyph-name="space" unicode=" " horiz-adv-x="794" 
 />
    <glyph glyph-name="exclam" unicode="!" horiz-adv-x="1004" 
d="M161 1591v-73q7 -38 7 -67q17 -32 20 -53l26 -80l14 -14v-20l13 -13v-20l27 -40l6 -20l7 -14l13 -40q31 -62 40 -106q8 -10 7 -20q25 -49 33 -87v-20l20 -47v-20l27 -167q52 -30 100 -20q39 14 60 40v27l7 13v47l27 147l6 33l14 34l6 26l14 34l6 20l7 20l13 26l14 27
q1 17 6 27l14 26l6 27l7 13l40 101l7 20l26 80v26q13 63 7 107q-83 285 -367 267q-222 -51 -280 -247zM174 263q116 -231 354 -193q187 28 247 193q2 301 -347 287q-253 -56 -254 -287z" />
    <glyph glyph-name="quotedbl" unicode="&#x22;" horiz-adv-x="802" 
d="M92 1755q9 -32 8 -56v-16q9 -32 8 -56l8 -68l4 -32v-16l4 -24l4 -28l8 -88h68h32h28q32 -2 56 4v20l4 20v12l4 32q2 38 8 64v20v12l4 24l4 16v20l4 16q1 30 4 48v20l4 12q2 45 8 72h-16h-68h-44h-16h-68h-12h-48v-28zM456 1727v-28l4 -20q4 -33 4 -56q4 -11 4 -20v-16
q7 -24 8 -68l4 -12v-20q12 -71 12 -116h16h16h12h16h72h52v28l4 8v28q6 23 8 40v24l4 16v20l4 16v16q8 45 8 72l4 16v12l4 28v16q8 44 8 72h-16h-68h-44h-16h-68h-12h-48z" />
    <glyph glyph-name="numbersign" unicode="#" horiz-adv-x="2896" 
d="M41 -51q-2 -52 5 -90h42h41h42h41h42h41h16h15h26h16h20h16h104h15h21h88h41h37h20h57h26h16h21h15h104h41h57h21h15h26h16h21h15h104h15h104h72h16h26h15h21h16h103h37h15h21h93h73h15h26h16h20h16h104h88h15h62h68h20h89h15h62h57h26h67h21h88h16h62v112v17v17v73v34
v17v73v33v40v34v28v33v23v101v62v22v23v22v23v17v22v17v22v102v22v28v73v23v95v17v67v73v23v95v17v68v22v96v22v62v39v17v17q2 52 -5 90h-42h-41h-42h-41h-41h-42h-15h-16h-26h-15h-21h-16h-103h-16h-21h-88h-15h-62h-21h-57h-26h-16h-20h-16h-103h-42h-57h-21h-15h-26h-16
h-20h-16h-103h-16h-104h-72h-16h-26h-15h-21h-15h-104h-36h-16h-21h-93h-72h-16h-26h-15h-21h-16h-103h-88h-16h-62h-67h-21h-88h-16h-62h-57h-26h-67h-21h-88h-16h-62v-1843zM103 1758h16h93h68h20h88h16h62h16h20h88h42h36h42h26h67h21h88h41h36h21h26h21h26h20h26h68h20
h88h42h36h36h16h26h15h21h16h103h37h103h42h41h42h41h104h15h16h160h37h31h36h31h26h31h21h93h57h21h20h21h21h88h41h37v-1860h-21h-16h-93h-67h-21h-88h-15h-63h-15h-21h-88h-16h-62h-41h-26h-67h-21h-88h-16h-62h-21h-26h-20h-26h-21h-26h-67h-21h-88h-16h-62h-36h-16h-25
h-16h-21h-15h-104h-36h-104h-41h-42h-41h-42h-103h-16h-15h-161h-36h-31h-37h-31h-25h-32h-20h-94h-57h-20h-21h-21h-20h-89h-15h-62v45v79v17v28v17v22v17v112v40v39v39v17v17v73v17v28v17v23v16v113v45v78v17v28v17v23v17v112v95v17v68v22v17v112v23v17v101v73v22v96v17
v67h20zM440 1668q-172 -37 -129 -247q21 -21 31 -39q32 -10 52 -34q174 -56 145 -242q-97 -114 -254 -89q61 80 -26 50q-9 18 -26 23q-26 -38 -52 -57q9 -37 5 -67l37 -34h41h16h67h16q5 7 10 6h41l37 6q25 13 46 11q3 10 11 11l10 11q9 5 10 11q64 40 99 85l5 39
q12 99 -5 180l-16 11l-5 11l-67 85l-11 5q-71 19 -124 62q-8 64 16 112q21 9 41 6q82 74 155 -73h16q25 40 62 51q-54 160 -223 134zM803 1657v-286l-5 -23l5 -22v-57l-5 -39q-1 -42 -5 -67v-57q-32 -110 20 -129q29 38 68 51l5 62v22v17v22q11 88 10 141h16h67h16h93
l5 -326q16 -6 31 -6l5 6v17q27 7 52 22v28v17v23v22v23v22v96v17v67v79l-5 22v23v16v29v16v23v17v112q-30 11 -57 -5q-14 27 -36 11v-247l5 -34q-28 -7 -52 -6h-21h-15h-104v17v23v22v56v17v17v17v45q-1 52 5 90q-9 5 -10 11q-41 -19 -73 5zM2300 1584h21l16 -6h15l10 -5h16
q63 -15 109 -11v-28q5 -46 5 -79v-304q-18 -55 0 -106h16q45 48 77 73v73v17v28v22v62v56v23v39l-5 124q123 -28 187 67l-21 11q-32 -5 -57 6h-16q-29 -7 -52 -6h-15l-21 6h-15h-16h-15h-37l-114 11l-26 17q-37 -11 -67 6q-11 -53 5 -96zM1316 1511l-21 -90v-213l5 -45
l5 -79l6 -11v-40q37 -60 123.5 -95.5t218.5 11.5h41q5 7 10 6q37 47 78 67v17q22 74 16 135q0 182 -104 298q-78 142 -218 134q-106 -5 -160 -95zM1906 1477q-1 -21 -5 -56q-2 -52 5 -90v-45l16 -135l16 -56l10 -67l21 -28q23 -10 36 -28q229 -23 261 112l14 90v22
q11 33 10 62v17q-2 134 -26 219q-76 114 -197 113q-125 -20 -161 -130zM1606 1416q99 -113 98 -253q15 -139 -93 -135q-124 -55 -202 34q-48 235 5 398l61 40q77 31 131 -84zM2176 1438q91 -308 -114 -376l-26 22l-5 39q-6 6 -5 12l-21 89v17q-8 43 -5 73v17l-5 40v45l5 11
q-3 61 39 73q81 26 137 -62zM1798 797h-21h-16h-20q-42 -8 -73 -5q-31 1 -57 -6h-41q-89 2 -145 -17l-6 -28v-573q-1 -67 16 -118h16l160 17l5 11q26 1 42 6h36l5 11l57 6h16q66 4 109 -6q26 41 62 56l-16 34h-36q-42 18 -67 17h-21h-16q-29 -11 -62 -6q-9 -5 -10 -11h-16
h-20l-16 -6h-21l-129 -17v17v28v17v23v17v112h26l15 -11h36l21 -6h31l16 -6h21h15h36q40 0 63 -5h51q14 41 52 45q7 26 0 45h-21q-56 0 -98 17h-21h-15h-68l-10 5h-16h-20l-114 17v17v112v79h31q30 10 57 6h21l15 5h21h21h15h36h16q58 12 98 6q6 6 11 5q37 48 77 68l-10 28
q-47 -7 -83 6q-20 -9 -41 -12zM1119 786q-31 -38 -41 -73v-34l-6 -16l-5 -23l-5 -17l-5 -73l-5 -39q-12 -33 -16 -62q1 -57 -10 -96l-5 23v17q-2 32 -6 56v17v17l-5 17v16v23l-5 22v17l-5 17v17l-21 90q-59 28 -93 56h-21h-15h-16q-70 28 -135 23l-15 -23v-219q6 -30 5 -56
v-113q6 -61 5 -101q-12 -221 73 -123l26 11l-6 78v23l-5 174v79v17l-5 11v17v22v101q57 -2 93 -39l26 -6l5 -22l6 -39l5 -34l5 -23l5 -45v-44l5 -12l5 -151q6 -9 6 -17v-34q7 -21 5 -45q12 -52 10 -90q10 -31 21 -50h15l11 11l15 11l11 6l5 11q30 13 52 34l5 39l5 34l5 33
l5 17l11 62l5 28l5 23v28q7 34 5 62l6 11v22q18 77 20 129q14 62 16 102q26 -16 41 -40l5 -17q9 -35 11 -61l15 -90l5 -23l6 -22v-73q11 -46 10 -85l5 -151l26 -12q25 40 62 51v17v17v73q2 33 -5 62l-5 56v17v22l-10 96q-6 8 -6 17l-36 174q-64 77 -140 62q-13 14 -31 16z
" />
    <glyph glyph-name="dollar" unicode="$" horiz-adv-x="1480" 
d="M666 1685q-413 -51 -513 -414q-3 -141 53 -254q10 -5 12 -11q6 -6 5 -12l12 -6q21 -29 30 -47q32 -16 47 -42l18 -5l12 -6l11 -12l83 -53l29 -12l18 -12l30 -6l11 -12l48 -11l12 -12l153 -53q306 -90 289 -260q-68 -161 -242 -154v18v24v23v24v24v100v18v70
q-59 14 -100 42q-12 -4 -18 -12v-336q-190 1 -254 88q59 21 95 59q99 168 -71 248q-207 74 -325 -94q-12 -63 -12 -107q22 -47 30 -82l89 -95q223 -125 448 -124v-165h118v47v118q359 9 537 266q139 295 -65 519q-55 30 -88 65l-100 48l-12 5q-59 19 -95 42l-41 6l-12 11
l-12 6q-40 7 -65 18l-17 12h-18l-24 12l-183 82l-59 53q-80 207 136 242v-247h18q40 -29 77 -36l23 -12v83v18v29v18v24v17v118q105 -1 183 -47v-24q-156 -152 6 -259q168 -76 307 29l36 71v18l-12 94l-12 6l-12 36q-35 26 -47 53q-73 39 -112 70h-24l-12 12q-31 5 -59 18
q-62 15 -106 18l-18 6l-118 11v18v24v106h-100h-6h6h-12h6h-12h6h-6v-153z" />
    <glyph glyph-name="percent" unicode="%" horiz-adv-x="2256" 
d="M129 1720v-96q-5 -62 -4 -106l-4 -32v-121l-4 -16v-96q-7 -82 -4 -132l-4 -27v-31q1 -50 -4 -85q2 -68 -4 -111v-75q-4 -62 -4 -106l-4 -58v-106l-4 -26v-96q-6 -40 -4 -69q1 -31 -4 -58v-111l-4 -11l4 -100l24 -16l88 -11l16 -5h12l12 -5h16l8 -6h12h12q16 -7 32 -5
l28 -5q16 -8 32 -6q54 -14 88 -16q33 -9 56 -10l20 -5h16l8 -6h20l12 -5h12l64 -11q19 -5 32 -5q37 -10 64 -11l20 -5l20 -5l68 -11l28 -5q33 -3 56 -11h12q19 -5 32 -5l28 -5l8 -6h12h12q19 -5 32 -5l52 -10l64 -11l8 5h32l64 16h24l16 5h12h12q15 8 32 6l44 10h24l12 6h16
l12 5h12h16q16 9 32 5l8 6q44 2 72 10h16q39 12 68 11q37 13 68 10q13 6 24 6q24 7 44 5q36 14 64 11l16 5h16q25 9 44 10h16l12 6h16q61 14 100 16q26 22 48 26q-2 41 4 69v16v26v16v27v16q8 58 4 100q4 26 4 43v26l4 90q-2 44 4 80q-3 72 4 122v42v48l8 132q-2 62 4 106
v32v32v31l4 32v32v32l4 74v69l4 37v21v16l4 95q-1 32 4 59v16q-2 61 4 106q-1 49 -28 74h-28l-32 -6h-24q-6 -6 -12 -5h-32q-4 -6 -8 -5q-30 1 -52 -5h-16h-16q-4 -7 -8 -6h-16h-12h-12q-4 -6 -8 -5h-32l-28 -5l-28 -6l-88 -5q-15 -6 -28 -5h-16q-24 -9 -44 -6l-16 -5h-16
h-16q-6 -6 -12 -5h-12l-28 -5l-72 -6l-12 -5h-28h-16l-56 -11h-12h-12h-12l-16 -5h-28q-45 -11 -72 -11q-19 6 -32 6l-28 5l-32 5h-16l-8 6l-64 5q-16 7 -32 5l-28 6h-12l-16 5h-12l-16 5h-28l-72 16h-12q-21 1 -32 5q-37 3 -64 11h-12h-16q-44 11 -72 11l-28 5l-68 10
l-24 6l-56 5l-20 5h-12q-19 6 -32 6l-80 10l-56 11h-12l-12 5h-28q-23 8 -40 11h-32l-28 5zM193 1735l8 -5q37 -1 64 -10q33 0 56 -6l16 -5h16h12l8 -5q29 -1 48 -6h24q15 -6 32 -5l28 -5l16 -6h20l8 -5h16h12l8 -5q29 -1 48 -5h24l12 -6h12h12q15 -6 32 -5q37 -12 64 -11
l24 -5h16l8 -5q51 -3 84 -11l16 -5l64 -5l8 -6q29 0 48 -5h24q32 -10 56 -11h12l12 -5q21 0 32 -5l64 -6v-84q-7 -53 -4 -90v-16q-7 -30 -4 -64q-28 87 -84 64l-4 -11v-16q-12 -33 -12 -63q-6 -40 -16 -69q-1 -31 -8 -58v-53q-3 -10 -4 -38q-10 -42 -12 -74q-5 -50 -12 -84
v-16l-8 -16l-4 -32l-4 -11l-4 -10l-16 -80l-12 -21q-17 -60 -44 -95q-24 -92 -64 -149q-15 -63 -40 -106q-21 -77 -60 -121v-16q8 -31 8 -59q30 -18 56 6l16 21l8 26l8 22l12 21l8 21q7 14 8 26l12 16l8 27l12 16l4 21l4 21q16 31 28 48l12 42l8 5v16l12 11q8 40 24 69
l12 -5q70 -10 116 -38v-47l-4 -21v-69q-5 -39 -4 -64v-32l-4 -63l-4 -85v-48l-4 -26q2 -50 -4 -85q0 -75 -4 -101v-31h-24l-20 5h-16l-16 5h-12l-12 5h-20l-8 6l-80 10l-8 6h-12h-12q-31 12 -60 10l-16 6l-68 10q-19 5 -32 5l-28 6l-76 16l-28 5l-28 5h-28l-28 6l-8 5
q-32 1 -56 10h-12h-16l-8 6l-20 5h-12h-12l-72 16h-24q-30 10 -52 11l-12 5h-16h-12l-12 5h-12l-8 5q-43 3 -72 11l4 74v16v21v16v27l4 16q-2 61 4 106v15v22v15v43l4 106l4 116v16v16q4 25 4 43v15v27v16v26q8 72 4 117l4 16v37l4 116v69l4 22v90v15q6 37 4 64v21v16v16
q4 25 4 42v22v21v16v21l4 16v37l4 116h16zM2221 1640v-37q-4 -58 -4 -132l-8 -165v-58l-4 -26v-96l-4 -37v-74q-8 -59 -4 -101q-6 -61 -4 -106l-4 -32v-100q-3 -10 -4 -37q1 -54 -4 -90v-75l-4 -26v-101q-7 -52 -4 -90v-26q-7 -53 -4 -90v-16q-5 -39 -4 -64l-28 -5l-80 -11
q-21 -8 -36 -5q-11 -6 -20 -5l-12 -6h-32l-12 -5l-72 -10l-20 -6q-23 -1 -40 -5h-16l-8 -5h-12h-12q-37 -10 -60 -11l-28 -5h-16q-6 -6 -12 -6l-80 -10l-8 -5l-36 -6h-16h-12q-15 -5 -28 -5q-33 -12 -60 -11l-56 -10h-12l-12 -6q-20 0 -32 -5l-64 -10l4 37v31v27l4 32v74
l4 26v27l4 85v21v26l4 27v16l8 201q-16 53 76 53v-212q4 -41 4 -69q5 -5 4 -10l4 -37q9 -30 8 -53q21 -27 32 -48h12q15 23 36 32q-5 26 -12 42q-5 5 -4 11l-16 90v16v68v91v42v16v69q-4 14 -4 26v37q-4 17 -4 32l-4 21v16l-8 43v21q-16 49 -16 90q-13 23 -16 47
q-8 18 -12 38q-41 44 -56 100v27l8 164q-1 43 4 74v16v16v16v16l4 16v16l4 105h12h28q54 14 88 11l12 5q55 1 92 11h40l12 5h32q38 11 64 11h12l28 5l88 11h24l16 5h28l20 5h20l68 11q30 -2 52 5h12l44 6h12h16q6 6 12 5q47 2 80 10q5 -20 4 -42zM333 1486v-482
q-9 -72 -8 -116q-7 -41 -8 -69q-28 -42 -28 -154q-6 -21 -4 -42l-8 -69l-4 -16l-4 -16v-16l-8 -58q-11 -42 -12 -79q-6 -64 16 -112h12q15 23 36 32q5 39 4 64l4 21q13 50 16 85v21l4 10l8 32v32l4 16v26v16l4 16v16l8 106l8 5q32 52 68 74l4 -10q17 -29 24 -48
q40 -46 52 -106q32 -28 40 -69q61 -53 64 -175q50 -92 44 -201q22 -23 40 -5q40 26 16 138v16q-5 5 -4 10q-7 16 -8 32q-33 54 -36 116l-4 11l-8 48q-6 7 -8 16q-67 59 -84 143q-39 37 -52 84q-19 27 -28 48q249 194 232 541q-29 37 -60 21q-17 -375 -268 -535v26l4 27v68
v165v74v16v26v16v21v16v106q-30 35 -60 43zM1993 1455l-28 -6q-11 -5 -20 -5l-16 -5h-12h-16q-37 -15 -68 -11q-32 -10 -60 -5l-16 -5h-16l-24 -11l-40 -21h-12l-12 -6h-16h-12l-88 -5l-12 -10q8 -25 4 -43q6 -24 16 -37q119 -7 204 37v-37l-4 -106v-185q-7 -63 -4 -106v-32
l-4 -16v-32l-4 -95l-4 -21v-48l-4 -21v-58l-4 -16v-37q-14 -82 -16 -133l4 -122q29 -29 64 11v63v16l8 64l4 26l4 32l4 106l4 32v37v16q5 20 4 42l8 106v16v69v27v15q5 21 4 43v21v26v59v58v21l4 16v21v16v21v96l52 5h12q22 7 44 5q15 6 28 6q33 12 60 10q4 6 8 6
q25 28 52 42q-12 40 -36 64h-24zM1209 1153l8 -43l20 -85l-4 -21v-47l-4 -90v-48q-6 -22 -4 -64l-4 -84q-31 12 -48 26q-24 1 -44 11q4 37 16 63l4 27l16 69l8 58l4 21v16q6 21 4 42l4 21l20 165zM1321 771q14 -48 12 -90q-42 -7 -68 -5l4 21v21v37v21l4 22v16v15v22v16
q7 61 4 100q42 -96 44 -196z" />
    <glyph glyph-name="ampersand" unicode="&#x26;" horiz-adv-x="1732" 
d="M113 1768v-211l-25 -20q78 -10 126 -5v20v15v20v90v41v15v65h-41h-15h-65q3 -22 20 -30zM229 1778q49 0 50 -45q7 -44 -30 -51v-25q42 -17 30 -60q-1 -53 -50 -50v-15q106 -19 145 55q-1 75 -75 80q28 15 50 21q74 120 -120 110v-20zM430 1763v-91q-3 -59 5 -100
q64 -39 130 -40q-6 30 -40 40v15v15v25v15v20v15v101l20 15l-15 5h-40h-15h-66q4 -24 21 -35zM605 1778q59 -38 35 -116q10 -81 -60 -105v-25q123 33 91 176q-3 54 35 85q-56 10 -96 5zM741 1778q23 -5 35 -20l10 -20l10 -5q27 -44 50 -71l10 -15l5 -10l21 -30
q38 -39 55 -75h15h60v45l-15 10l-10 20l-15 15l-25 45l-10 5l-10 10l-5 16q-48 55 -71 100h-15h-90zM977 1763q-20 -98 35 -146v15v15v41q-2 47 5 80q19 10 30 25q-59 10 -100 5q4 -27 30 -35zM1102 1768v-201q-11 -11 -25 -15v-15l10 -5h15h66h30v55v20v15v25v15v20v16v100
h-15h-101q2 -23 20 -30zM1258 1768v-15q6 -5 5 -10q3 -137 -5 -181l-40 -10v-20q130 15 141 135q-17 129 -141 131q9 -26 40 -30zM1389 1783q92 -100 90 -221q-20 -11 -30 -25q90 -14 156 0q-11 16 -30 20v85q-69 109 -46 156h-20h-15h-100zM1570 1783q27 -9 30 -35
q-41 -46 -5 -71q22 73 80 101v15q-56 10 -95 5zM741 1537q59 -11 100 0q-16 24 -35 35q19 104 -30 151q18 -110 -35 -186zM480 1341q55 -4 90 -40v-40q10 -3 10 -10v-161q-17 -41 -10 -75q-65 -39 -135 -41v-35l10 -15q72 11 90 -35l35 -5v-60l10 -5v-91q20 -204 -100 -206
v-75h15h35l90 5v20q156 55 166 206v20v15l-5 101l-20 5q-6 52 -50 70l-15 35h-15q-33 12 -61 10q18 23 41 20v20q61 16 75 71l20 5v15q4 33 15 55v50l10 15q-17 34 -10 66q-31 37 -40 70h-15q-12 17 -30 20l-5 30q-35 3 -56 20h-15v20h-15l-115 5v-75zM1158 1341
q149 8 85 -336q-65 -28 -120 -26q-7 -26 -5 -45l10 -10q40 2 65 -15h25q7 -27 30 -25v-50q16 -55 10 -101q26 -206 -100 -211v-75h15h35l90 5v20q43 17 71 20v15q93 72 100 176q5 235 -171 251q165 92 151 241q14 116 -80 166q-18 44 -76 50v20h-15q-25 1 -40 5h-15h-65v-75
zM379 1391q-104 -19 -125 -110l-20 -10q-11 -87 10 -156q21 -6 25 -25q34 4 40 -25q71 -6 100 50l21 5q37 111 -36 161l-10 40q25 16 51 20q-1 41 -5 70h-41h-5h5h-10h5h-5v-20zM1057 1391q-116 -24 -150 -160q-13 -132 85 -146v-20q47 -12 55 20q58 17 76 75q8 81 -51 121
l-5 25q8 40 51 35q1 39 -16 70h-10h-15h-10h-10h10h-10v-20zM284 784q-121 -42 -65 -221q45 -32 65 -71q32 1 50 -20h20v-20q36 0 60 -5q33 7 21 75q-40 1 -66 21v15q41 48 61 80q8 160 -146 161v-15zM967 784h-25q-24 -29 -45 -41q-57 -209 135 -271v-20l86 -5v15v60
q-41 0 -71 21v20h20q56 101 30 145q-14 92 -130 91v-15zM239 322v-211q-19 -5 -25 -20l10 -5h35h15h15q46 -3 80 5q-8 16 -25 20v20v90v15v15v101h-15h-20h-90q2 -23 20 -30zM359 332q29 -2 50 -15q24 -108 -50 -106v-25q124 -13 146 90q-35 96 -146 76v-20zM535 206
q23 -118 136 -120q-15 22 -36 30v15q-5 5 -5 10v20v15v35v15v15q-2 47 5 81l36 10q-3 24 -26 20q-112 -37 -110 -146zM726 322v-206q-29 -13 -40 -30q129 11 140 130q-20 126 -140 136q8 -26 40 -30zM856 332l26 -10v-201q-18 -16 -26 -35h41h15h65v15v155q-7 57 25 91
l-15 5h-15h-20h-91zM1163 322v-211q-19 -7 -25 -20q87 -13 145 0l-25 25v20v15v20v90q-7 54 25 86l-15 5h-15h-20h-90q3 -22 20 -30zM1354 306l-31 -35q-23 -32 -45 -50v-35q31 31 35 -15q34 -43 5 -80l10 -5h16q67 -4 115 5l-5 15l-25 25l-20 50q-32 57 -45 100l10 5
q32 36 70 46l5 15q-20 7 -40 5h-15h-66q9 -27 26 -46zM997 106v-20h15h90q9 49 5 85l-30 5q-21 -61 -80 -70z" />
    <glyph glyph-name="quotesingle" unicode="'" horiz-adv-x="440" 
d="M95 1781q9 -32 8 -56v-16q9 -32 8 -56l8 -68l4 -32v-16l4 -24l4 -28l8 -88h68h32h28q32 -2 56 4v20l4 20v12l4 32q2 38 8 64v20v12l4 24l4 16v20l4 16q1 30 4 48v20l4 12q2 45 8 72h-16h-68h-44h-16h-68h-12h-48v-28z" />
    <glyph glyph-name="parenleft" unicode="(" horiz-adv-x="825" 
d="M685 1832q-25 -19 -50 -27l-11 -11l-17 -6q-51 -47 -95 -67q-822 -801 0 -1557l17 -6l11 -16h17l11 -11l11 -11l11 -6l11 -11q49 -24 78 -50q77 -11 117 39v28q-6 8 -6 16q-17 15 -27 34q-15 28 -23 50q-6 5 -5 11l-11 11q-18 53 -34 83q-170 669 6 1252l11 11l11 39
l6 16l5 11l28 45l39 67q-17 73 -89 72z" />
    <glyph glyph-name="parenright" unicode=")" horiz-adv-x="870" 
d="M66 1764l34 -45l6 -17l5 -11l23 -34q17 -46 34 -74q195 -700 0 -1314l-11 -12q-27 -84 -74 -136q-13 -35 -17 -62q51 -54 119 -40q24 21 51 29l17 17l17 5q15 15 34 23q5 10 11 11l11 12l12 5l5 12l17 11q43 37 74 57q767 855 -170 1586q-76 44 -136 51q-56 -25 -62 -74z
" />
    <glyph glyph-name="asterisk" unicode="*" horiz-adv-x="1527" 
d="M96 1326q-130 -464 194 -783q385 -322 816 -150q459 213 472 692v4v-4v7v-3v7v-4v8v-4v7v-3v7v-4v7v-3v8v-5v8v-3v6v-3v7v-4v8v-4v8v-4v7v-3v6v-3v8v-5v5l-3 15l-5 39l-10 52q-2 21 -8 36l-7 29q-13 22 -14 44q-243 507 -769 487q-512 -71 -666 -520zM1296 1590l-26 -22
l-6 -12l-15 -13l-8 -5q-3 -6 -7 -6q-28 -37 -55 -56q-112 225 -340 249q-238 11 -370 -164l-3 -8l-8 -7l-36 -62q-114 -377 215 -545l-3 -8l-7 -7l-8 -8l-7 -7l-8 -7l-8 -4q-3 -6 -6 -7q-24 -28 -41 -44l-7 -4q-18 -24 -37 -36q-13 -19 -29 -29l-10 -15l-37 -33l-12 -14
l-10 -8l-11 -15l-8 -7l-7 -7l-8 -7l-7 -8l-7 -4q-4 -6 -7 -6l-41 -44q-268 294 -175 658q157 473 622 519q327 6 538 -197zM1102 1411l-3 -19l-8 -7l-8 -3l-3 -8l-7 -4q-13 -17 -26 -29l-14 -15l-15 -14l-18 -18l-18 -15l-11 -15l-12 -11l-7 -8l-7 -3q-14 -18 -26 -29
l-15 -15l-36 -33l-15 -14l-11 -15l-7 -7l-8 -4q-13 -18 -25 -29l-7 -4l-8 -7l-7 -8l-8 -6l-7 -8l-7 -4q-4 -7 -7 -7l-41 -44q-252 96 -230 348q46 247 278 285q265 0 344 -230zM1501 1041q-27 -288 -219 -457q-236 -210 -524 -184q-248 23 -410 173l18 14l15 15l11 15l15 14
l15 11l10 15l15 15l7 3q4 6 7 8q29 35 55 54q13 17 23 26l15 15l24 21l12 15l11 8l11 14l7 7l8 8l7 7l6 8l8 3q4 7 7 8l41 44l11 -5l58 -10v-184h-18h-48h-15h-62h-10h-44v-58h18h48h14h62h30h25v-212h12h47v15v18v47v15v63v10v44h18h11h15h15h14h15h62h11h44v11v47h-18h-11
h-15h-14h-15h-15h-62h-11h-44v15v41v18v11v15v11v73q202 24 308 171q111 165 65 344l11 11l12 8l3 7l7 3q13 19 26 30l11 8q3 6 7 6l4 8l7 7l8 4l3 7l7 4q14 17 26 29q198 -235 172 -512zM777 997l14 18l18 15l12 15l14 11l11 15l14 14l8 4q3 6 7 7q28 36 55 55q13 17 22 26
l15 14l25 22l11 14l11 8l12 15l7 7l7 7l7 7l8 8l7 4q3 5 8 6l39 44q-8 -329 -332 -336zM1000 280q78 -123 47 22h-47v-22zM85 258l18 -3l8 -19l3 -11q21 -40 29 -69q6 -5 7 -12l8 -11l15 -36l6 -3v-12l8 -6l4 -8q8 -27 18 -44h47v37l-3 15l-12 6v15q-5 4 -6 11q-4 5 -4 10
l-8 12l-3 14q-13 15 -18 26q-5 19 -15 36q-5 6 -3 12q-21 33 -29 62h-12h-11h-47v-22zM212 262l19 -7l4 -19v-103q13 -16 14 -33q6 5 7 12v44v11v10q-1 43 5 73q14 13 18 26q-36 8 -62 4zM344 273q-90 -121 -7 -241l51 -12q-1 26 -25 30v18v11v15v14v15v15v62v11v44l25 7
q1 19 -18 18q-14 -6 -26 -7zM422 255v-205q-26 -8 -26 -30l26 4l21 8q83 128 -3 241l-44 7q3 -24 26 -25zM575 258l21 -8v-14q12 -21 16 -40l4 -15q3 -6 3 -11q4 -5 3 -11l5 -11l28 -84q21 -90 44 22l4 11l7 29l4 26l14 51v-161q-12 -8 -18 -22h74q16 -3 22 12q-10 3 -15 10
v14v20v47v15v62v11v44q15 5 15 21h-11h-67l-3 -14l-4 -15l-3 -11l-4 -22l-7 -29q-9 -22 -11 -41q-6 4 -7 8l-5 10q-5 22 -6 38q-19 41 -23 73l-7 3h-11h-10h-49zM897 250q4 -5 4 -10l3 -19l5 -29l3 -7v-11l15 -74q-38 9 -41 -21h44q4 -33 -7 -59h10h12h11h47q6 4 8 12
q-25 31 -22 65l-4 15l-3 21l-5 11v12q-3 5 -3 11l-3 7v14v12q-16 40 -15 73q-30 6 -55 3zM1132 262l3 -26v-15q7 -21 7 -40l19 -84q-37 8 -41 -21h44q4 -37 -6 -67h10h11h11h48q5 4 6 11q-20 35 -21 69l-3 19l-5 10v15q-4 10 -3 19l-4 15l-7 29v10q-8 22 -7 44q-6 12 -8 23
h-51zM1264 255l18 -5v-10l11 -26l3 -11l4 -15l3 -11l4 -15q16 -27 19 -57q13 -29 18 -52q19 -90 44 26v15l3 14l4 7l7 23l4 24l11 38v-168q-18 -5 -18 -23h73q20 -2 22 15l-15 8v50v41v18v11v15v10v73q15 6 15 23h-11h-66l-4 -23l-3 -7v-11q-9 -20 -11 -44q-13 -28 -15 -55
l-3 11l-8 8v10q-4 7 -4 12l-3 11l-8 29q-14 34 -18 59h-73zM883 188l-4 -11l-11 -51l-3 -14l-5 -15l-10 -47q-19 -12 -26 -26q39 -8 70 0q-28 27 -15 62v11q23 64 18 124h-11zM103 56q-15 -15 -22 -29l7 -3h11h48v18q-21 8 -22 29q13 90 -22 143v-158zM1109 152l-7 -29
l-7 -26q-5 -39 -18 -65l-19 -12q4 -6 4 -11h62q-3 25 -18 37l3 10v12l5 11l3 15v11q15 55 18 91q-4 14 -15 18zM601 56l-5 -10q-12 -13 -18 -26q40 -1 67 4q-7 10 -8 18q-14 6 -18 19q5 67 -15 120h-3h3h-3v-125zM1267 9h62q-2 24 -18 37l-4 7q7 70 -19 121q12 -94 -21 -165
z" />
    <glyph glyph-name="plus" unicode="+" horiz-adv-x="2252" 
d="M900 1787v-135q18 -12 26 -30l-4 -22q-10 -10 -22 -13v-428h-22h-18h-78h-17h-18h-17h-74h-13h-53q-19 -25 -43 -13q-8 -9 -18 -13l-35 26h-56h-74h-57h-61h-13h-61l-57 5l-9 -18v-309q-5 -48 -4 -79l18 -21h13l8 4h13h18h78q4 17 18 22l8 -5q8 -4 9 -8q28 7 48 -9h48h44
h13h35h34h48q21 13 40 9l30 13q10 -10 13 -22h61h48h22h13h17h14h87q-5 -45 26 -74l-13 -22q19 -35 -13 -48v-336q16 -17 13 -39l13 -9q-6 -23 -26 -17v-96h61h22h135h61h52h13q59 -3 100 4v136v61v13v22v13v17v13v87q-27 12 -30 40q5 30 30 39v35v13v13v135h48h18h74h13h52
q-2 25 18 39q10 -10 13 -22q31 6 48 -17h21h18h22h17h22h57h17h74h13h52q8 18 18 30q42 4 52 -30h74h13h53l4 30v62v13v78v57v17v74v13v53l-4 21h-13h-14h-135q37 -40 -30 -34l-9 17q-23 -5 -30 17h-31h-26h-22h-26h-17h-79h-48h-17h-18h-17h-18h-74h-13h-52q-1 -20 -22 -26
q-31 5 -52 26h-44v75v17v22v57v17v74v13v52q-28 28 -30 61q6 30 30 27v56v18v74v13v52l-21 9h-75h-17h-17h-14h-78h-57h-17h-74h-13h-53q-4 -8 -8 -9zM1131 1386q-22 -6 -26 18q18 17 30 35q42 -24 -4 -53zM568 959q-8 -25 -34 -22q-46 -55 -22 31q35 2 56 -9z" />
    <glyph glyph-name="comma" unicode="," horiz-adv-x="621" 
d="M76 301q58 -158 253 -155l6 -26q-109 -111 -242 -144l-28 -21l-5 -36q21 -21 38 -31q357 54 490 341l5 93q-86 211 -313 196q-214 -42 -204 -217z" />
    <glyph glyph-name="hyphen" unicode="-" horiz-adv-x="2129" 
d="M-18 1092l-4 -91v-371l16 -38h16h12l12 -5h68h32h28q8 32 32 32l8 -16q39 3 68 -16h16h20h52h16h68h12h48h16h16h12h72h52h16h68h32h28l12 32q32 -4 48 -32h28h56h12h20h12h16h12h80h52h28h56h12h72h52h16h68h32h28q26 24 52 21l20 27l32 -48h24h24h28h16h12h80h56h12h72
h52h16h68h12l48 5l16 33v21v22v21v22v16v21v16v22v96v17v166l-20 27h-12l-12 11h-16h-16h-68h-12h-48q3 -38 -24 -27q-11 -14 -24 -22q-33 5 -24 49h-24h-28h-24h-28h-52h-124h-56h-12h-20h-12h-16h-12h-80q0 -49 -40 -38q-17 -22 -36 -27l-20 27q-34 -3 -60 11q5 35 -24 27
h-56h-12h-20h-12h-16h-12h-80h-68h-12h-48h-16h-12h-80h-16h-12h-72h-52h-16h-68h-12h-48q-24 -25 -48 -27q-37 4 -60 27h-20h-52h-68h-52h-16h-44h-28q-53 -3 -88 5zM606 856q-23 -21 -32 -43q-45 37 12 69q17 -5 20 -26zM1106 743q6 20 16 32q77 -58 -16 -32z" />
    <glyph glyph-name="hyphen" unicode="&#x2010;" horiz-adv-x="2129" 
d="M-18 1092l-4 -91v-371l16 -38h16h12l12 -5h68h32h28q8 32 32 32l8 -16q39 3 68 -16h16h20h52h16h68h12h48h16h16h12h72h52h16h68h32h28l12 32q32 -4 48 -32h28h56h12h20h12h16h12h80h52h28h56h12h72h52h16h68h32h28q26 24 52 21l20 27l32 -48h24h24h28h16h12h80h56h12h72
h52h16h68h12l48 5l16 33v21v22v21v22v16v21v16v22v96v17v166l-20 27h-12l-12 11h-16h-16h-68h-12h-48q3 -38 -24 -27q-11 -14 -24 -22q-33 5 -24 49h-24h-28h-24h-28h-52h-124h-56h-12h-20h-12h-16h-12h-80q0 -49 -40 -38q-17 -22 -36 -27l-20 27q-34 -3 -60 11q5 35 -24 27
h-56h-12h-20h-12h-16h-12h-80h-68h-12h-48h-16h-12h-80h-16h-12h-72h-52h-16h-68h-12h-48q-24 -25 -48 -27q-37 4 -60 27h-20h-52h-68h-52h-16h-44h-28q-53 -3 -88 5zM606 856q-23 -21 -32 -43q-45 37 12 69q17 -5 20 -26zM1106 743q6 20 16 32q77 -58 -16 -32z" />
    <glyph glyph-name="period" unicode="." horiz-adv-x="868" 
d="M233 121q167 -62 296 18q124 78 97 216q-116 181 -324 148q-351 -164 -69 -382z" />
    <glyph glyph-name="slash" unicode="/" horiz-adv-x="1151" 
d="M838 1744l-18 -42l-24 -42l-12 -42q-17 -23 -24 -42l-18 -35l-18 -42l-18 -42l-18 -36l-12 -36l-18 -36l-12 -36l-18 -42l-48 -108l-18 -42l-18 -36l-6 -12l-18 -42l-36 -90l-54 -113l-18 -36l-42 -108l-17 -30l-12 -42l-18 -36l-18 -30l-6 -30l-18 -24l-12 -30l-12 -30
q-12 -35 -30 -60q-2 -15 -6 -24l-6 -24l-12 -6q-7 -33 -24 -59q-16 -53 -36 -84l-12 -18v-18l-12 -12q-7 -34 -24 -60q-16 -45 -30 -72h24h30h78h24h102h47h42l12 24q7 33 24 60q11 32 24 54q41 112 78 173q7 25 18 42l12 42l24 42l18 42q11 37 24 60l6 18q41 81 60 138
l12 18q11 32 24 48v18l12 6q15 62 42 102l6 18l6 24l12 11l54 132l54 114l5 30l18 30l18 36l12 42l18 36l12 24l18 36l12 36l18 36l12 24l6 24q16 28 24 53l6 12q21 43 30 72q28 47 36 84l12 6v18l36 78h-24h-30h-78h-24h-102h-18h-71z" />
    <glyph glyph-name="zero" unicode="0" horiz-adv-x="1801" 
d="M103 922q57 -749 754 -838v130q-137 -11 -189 97q-6 38 -6 65v20v84v20v19v202v45v39v46v39v32v39v26v117v71v26v26v26v26v111v19v78q6 72 32 124q80 56 163 45q13 130 -26 130q-718 -141 -728 -864zM973 1656q117 10 182 -65q18 -52 20 -97v-1040q3 -86 -7 -143
q-68 -117 -195 -97v-130q728 112 754 851q-50 758 -754 851v-130z" />
    <glyph glyph-name="one" unicode="1" horiz-adv-x="1089" 
d="M711 1790h-86l-33 -6h-27h-26h-20h-46h-20q-73 -12 -126 -7l-27 -7q-101 0 -166 -13l-39 -26q-5 -50 6 -80q32 -5 60 -20q66 2 113 -33l6 -40q14 -64 7 -112v-915q10 -158 -13 -259l-33 -26q-135 8 -146 -100l33 -33l40 -7l33 -6h20h86h113h26h113h86h26h73h47
q88 -4 146 6q41 17 66 40q-2 45 -20 73q-114 10 -172 80v132v53v93v20v33v20v26v20v133v113v20v79v86v27v113v19v80v73v33v86v27v113v19v80h-67q-18 -7 -33 -7z" />
    <glyph glyph-name="two" unicode="2" horiz-adv-x="1661" 
d="M764 1671q298 38 292 -241q13 -125 -26 -233l-78 -111l-26 -13l-13 -19l-91 -59l-13 -19l-13 -7l-13 -13l-39 -26q-31 -21 -52 -32q-26 -26 -52 -39l-19 -7l-7 -13l-91 -52l-45 -32q-52 -36 -91 -52l-39 -45q-42 -28 -65 -59q44 8 72 26q61 8 104 26h51h46q42 29 84 39
q7 8 13 7q10 8 20 6l104 52h19l26 7l13 13q59 9 98 32q586 123 571 571v20l-6 45q-12 20 -13 39q-12 7 -13 13l-7 20l-26 45q-31 23 -45 52q-301 211 -630 188v-129zM556 1787l-20 -6h-19q-10 -8 -19 -7l-52 -13q-39 -16 -72 -19q-29 -23 -58 -26l-7 -13l-45 -19
q-26 -35 -59 -46q-191 -227 0 -396q268 -169 474 58q70 220 -143 312q28 57 91 52v130h-58q-7 -8 -13 -7zM1426 625q-16 -87 -84 -130h-26h-20h-130l-19 7l-111 13l-19 6h-19h-20q-31 7 -52 7q-91 24 -162 19l-20 7q-42 0 -71 6h-26h-20h-19h-26h-26q-67 -16 -117 -13
q-44 -24 -84 -26q-51 -39 -98 -52l-6 -13q-94 -76 -137 -168q-27 -91 20 -156q45 0 78 6q73 62 156 72h26h45l20 -7h19q60 -19 104 -19q778 -281 987 350q0 52 -6 91q-41 31 -91 33z" />
    <glyph glyph-name="three" unicode="3" horiz-adv-x="1709" 
d="M817 1655q289 15 239 -277q17 -176 -26 -297q-141 -70 -284 -52q-45 -32 -45 -77q29 -33 58 -46q166 20 277 -58q29 -95 20 -174v-103q63 -362 -239 -349v-129q495 -37 742 297v19q24 50 26 91q10 403 -445 452q427 113 406 451q-11 71 -32 117q-257 293 -697 264v-129z
M171 1339q8 -7 7 -13l39 -52q258 -219 471 46q53 156 -142 264q42 81 129 71q16 136 -39 123q-487 -87 -465 -439zM107 390l64 -110q231 -177 504 -187v129q-147 -13 -174 58q219 108 135 310q-134 124 -297 110q-264 -58 -232 -310z" />
    <glyph glyph-name="four" unicode="4" horiz-adv-x="1814" 
d="M1127 1751l-6 -14l-14 -6q-38 -60 -86 -93q-33 -55 -73 -87q-33 -46 -73 -73v-1187q-61 -75 -172 -80q-22 -38 -20 -73l33 -33l46 -7q53 -10 93 -6h20h86h206h93h20h33h20h26h20h133q52 18 86 46q-1 45 -20 73h-19q-52 27 -107 27l-33 26l-6 13l-7 14v26v20v27v119
q279 -31 272 86q-27 27 -46 40h-20h-206v53v27v119v113v20v80v86v26v113v20v80v26v20v27v20v33v33v20v86q3 101 -7 166q-119 23 -199 13q-46 -20 -73 -39zM716 1299l-33 -33l-27 -33l-26 -33l-34 -27l-20 -26l-26 -33l-27 -27l-13 -7q-23 -41 -53 -59l-20 -20
q-7 -15 -20 -20l-13 -27l-20 -26q-37 -27 -53 -53l-20 -20l-13 -14l-20 -19q-23 -32 -40 -47l-13 -13l-33 -40l-14 -13l-73 -87q-13 -54 -13 -92q33 -35 66 -47h40h206h93h20h33h20h26h20h133v20v20v86h-33h-27h-33h-26h-34h-86h-26h-113h-20h-80l20 27q12 18 27 26l13 27
l66 66q33 45 60 73l13 7q20 35 40 53l20 13l7 20l20 13l13 20q25 27 40 47l39 33q42 70 100 113v53q3 78 -7 132z" />
    <glyph glyph-name="five" unicode="5" horiz-adv-x="1658" 
d="M255 1766l-7 -59q-8 -37 -6 -65l-7 -59l-6 -13v-46l-7 -13q0 -47 -7 -79v-39h33l20 -6l133 -13h26h20h132q682 -46 901 425l-20 -7h-20l-20 -6l-53 -20h-20h-26l-47 -13q-72 -3 -119 -13h-92h-34h-19h-20h-27h-20h-53l-132 7l-26 6h-40l-33 7h-27l-39 6h-20h-27l-13 7
q-50 1 -79 6l-20 7h-33q-50 6 -80 6q-38 2 -66 7v-33zM202 1275q-13 -52 -20 -131l-6 -85q-17 -77 -14 -131l40 -45h20q25 -9 53 -7q10 8 20 7l13 13l20 6q33 13 53 26h20l13 14l73 19l20 7l132 32v20v20v131q-184 -36 -318 -138q-1 49 7 85v33q15 90 13 144h-20
q-73 -3 -119 7v-27zM771 1000q346 25 278 -386q60 -427 -271 -393v-137h20h92q52 11 86 7l27 6l20 7l26 6h20l27 7l13 6h20q46 25 86 33q412 201 324 615l-7 46q-21 30 -26 59l-13 7l-7 13l-33 52q-12 7 -13 13q-53 39 -80 72q-288 159 -589 144v-177zM70 418q10 -54 26 -92
q192 -198 437 -229q63 -10 106 -6v130q-83 5 -139 46l13 33q166 108 99 275q-119 152 -297 131q-257 -54 -245 -288z" />
    <glyph glyph-name="six" unicode="6" horiz-adv-x="1821" 
d="M122 867q81 -700 749 -776v19v20v85q-116 3 -192 71v20q-14 77 -7 130v26v118l-7 46v39v39v39v39v85v26v111v19l-6 79v71v33v85v26v111v19v79q10 54 26 85q100 76 219 65q18 148 -53 124q-777 -160 -729 -933zM1023 1676q88 -3 139 -52v-40q-170 -125 -93 -287
q166 -133 351 -78q191 57 199 242l-26 91q-44 47 -67 85q-243 161 -503 163v-124zM1069 1082l-53 -19l-112 -26q-52 -38 -100 -53v-137q174 106 325 33q15 -38 20 -65v-431q1 -60 -7 -104q-69 -65 -159 -59v-130q621 -7 742 515q8 504 -629 483z" />
    <glyph glyph-name="seven" unicode="7" horiz-adv-x="1487" 
d="M507 1776q-32 -17 -59 -20q-56 -34 -99 -46q-8 -10 -19 -13q-12 -11 -27 -13l-13 -20l-19 -6l-20 -20l-20 -6l-6 -14l-13 -6l-105 -79l-7 -13l-26 -105q49 -8 79 7q70 -3 118 6l104 -6h27q50 -8 85 -20h26l20 -6h33l19 -7q38 -2 66 -13l19 -7q86 -1 151 -26h20h203
q321 85 367 387l-39 33q-82 -27 -131 -72h-46l-40 6q-36 15 -65 13q-49 25 -92 33h-20l-13 6l-85 20q-157 36 -262 26zM1096 1265l-13 -7l-19 -6h-20q-39 -14 -72 -14q-21 -49 -53 -78l-65 -66l-13 -13l-13 -13l-13 -6l-40 -33l-33 -33l-13 -20l-19 -13q-43 -46 -79 -65
l-13 -26l-20 -14l-13 -13l-13 -13l-13 -6q-33 -45 -66 -72l-6 -14l-13 -13q-12 -29 -33 -45q-16 -46 -39 -73q-61 -152 -33 -294q72 -212 275 -230q215 -18 341 131q39 89 39 164v46q-6 21 -6 39l-7 13v20q-15 51 -19 85l-7 46q-21 89 -13 157l6 13v40l14 46l6 13
q16 101 59 170q43 110 92 170l13 46q-33 -19 -66 -19z" />
    <glyph glyph-name="eight" unicode="8" horiz-adv-x="1686" 
d="M119 1404q-16 -364 431 -443q-499 -79 -489 -509q99 -394 717 -371v130q-88 -10 -144 39v20l-19 45v26v111v26v72v19v20v26v20v45q-4 87 6 144q62 84 163 71v20v85v26q-257 -21 -195 352q-54 308 195 293q20 140 -52 117q-518 -11 -613 -384zM888 1671q243 15 196 -326
q46 -340 -196 -319v-131q240 20 183 -378q50 -335 -170 -306v-130q613 -20 711 371q10 434 -489 509q447 79 430 443q-101 393 -665 384v-117z" />
    <glyph glyph-name="nine" unicode="9" horiz-adv-x="1801" 
d="M110 1165q73 -237 285 -305q293 -102 551 20v19v117q-358 -125 -305 227v25v20v32v33v19v78v19v20q-3 76 7 129q76 80 181 65v117h-78q-658 -66 -641 -635zM946 1683q74 -14 117 -65l6 -45v-1069q3 -99 -6 -163q-47 -100 -149 -116v-123l129 6q637 212 642 836
q-39 762 -739 856v-117zM213 419q10 -24 13 -45l13 -13l39 -71q240 -192 519 -188v19v20v84q-78 5 -117 58l13 58q133 112 58 260q-134 107 -285 97q-251 -50 -253 -279z" />
    <glyph glyph-name="colon" unicode=":" horiz-adv-x="44" 
 />
    <glyph glyph-name="semicolon" unicode=";" horiz-adv-x="237" 
 />
    <glyph glyph-name="less" unicode="&#x3c;" 
 />
    <glyph glyph-name="equal" unicode="=" 
 />
    <glyph glyph-name="greater" unicode="&#x3e;" 
 />
    <glyph glyph-name="question" unicode="?" horiz-adv-x="1400" 
d="M109 1592q-46 -148 64 -229q172 -111 342 -25q147 81 70 292q31 26 63 25l6 13v19v19v82h-19h-76h-12h12h-12q-276 -23 -438 -196zM781 1661q186 -93 133 -285q-102 -243 -405 -215q-7 -8 -13 -7q-37 -50 -63 -76v-171q-9 -151 12 -247q142 -66 152 114l45 13l38 6
q539 33 640 469q5 449 -539 520v-121zM249 292q107 -221 336 -184q180 25 234 184q4 283 -329 273q-240 -56 -241 -273z" />
    <glyph glyph-name="at" unicode="@" horiz-adv-x="2092" 
d="M154 991q-6 -131 24 -226v-17q21 -44 24 -72l12 -11l65 -131l12 -6l12 -18q39 -45 59 -77l24 -12l12 -18l12 -6l41 -35q62 -40 95 -71l30 -6l18 -12l12 -6l23 -12q10 -6 12 -12q81 -16 137 -47h41q48 -19 84 -24h47q81 -17 131 -18h59h24h24h83q9 7 18 6h29h24
q92 16 148 12l24 6l101 18h24q54 24 101 29l-54 125q-561 -166 -1033 36l-47 35q-46 26 -72 59q-352 326 -142 742q270 378 701 380q327 29 570 -130q247 -168 225 -439q-41 -277 -297 -327l-17 -47l-6 -48l-12 -41l41 5l42 12l83 18q379 183 321 564q-120 448 -677 552h-24
h-30l-77 6l-18 6h-18h-23h-107q-770 -72 -915 -742zM629 777q65 -311 404 -202l30 30q6 34 0 60q-72 12 -101 59v41v18l6 24l12 24q17 71 35 113q17 206 179 278q11 36 23 60q-10 58 -118 41q-439 -92 -470 -546zM1283 1312l-12 -24l-24 -101l-6 -12l-12 -36l-6 -17l-6 -18
l-6 -30l-23 -95q-14 -36 -18 -65l-12 -48l-12 -41q-37 -90 -36 -166q103 -163 369 -95l29 130q-68 9 -65 71l12 30l6 30l6 29l12 36l17 59l6 36l12 30l6 29l18 66l12 47l6 18l6 12l35 136h-77h-24h-101h-17h-72z" />
    <glyph glyph-name="A" unicode="A" horiz-adv-x="2022" 
d="M797 1683q16 -44 20 -79q19 -36 19 -66l14 -53l20 -47v-19q8 -7 6 -14l13 -53l14 -46l6 -13l7 -27l7 -13l13 -60l13 -33l27 -112l6 -20l13 -27v-26l14 -53q29 -60 33 -106q20 -43 20 -80q19 -36 19 -66h-92h-20h-33h-20h-27h-19h-133l-7 -26l-6 -14l-27 -106h73h33h86h27
h112h53h47l6 -39q50 -114 40 -219q-30 -18 -46 -33q-47 -11 -73 -40q2 -38 13 -66l73 -26h86h47h92h20h119h86h27h113h19h80q81 15 86 86l-33 33q-63 16 -99 46q-24 50 -34 86l-6 20v20q-25 45 -27 86l-20 46l-6 20l-7 47q-11 20 -13 39l-7 27q-36 89 -46 152q-17 42 -20 73
q-10 18 -13 33l-7 27l-13 33l-7 20v20l-6 26q-9 10 -7 20q-20 38 -20 73q-18 33 -26 59l-7 47l-7 26q-23 52 -33 93l-6 20l-7 46q-20 37 -26 73q-15 46 -20 79q-23 48 -27 87l-13 53q-23 39 -26 79h-27h-20h-119h-86h-27h-112h-20h-80q-18 -70 -39 -113zM724 1478l-7 -46
l-13 -13q-15 -72 -40 -120l-13 -39l-13 -40l-14 -40l-33 -112l-13 -40l-33 -86l-13 -33l-7 -20q-20 -76 -40 -119l-6 -27l-7 -26l-13 -27l-7 -26l-6 -20q-30 -65 -40 -120q-15 -24 -20 -52l-7 -27l-13 -13q-18 -58 -40 -93q-82 -84 -185 -106l-33 -20q-20 -33 -20 -59
l60 -47q69 -8 112 -6h27h33h86h26h113h53h46l67 33q6 38 0 66l-20 20q-115 25 -166 112q0 62 13 106l20 40l7 20q2 17 6 26l7 14q25 97 53 152q8 50 27 86l6 13v20l7 14l6 19l27 80l7 26l13 20l20 66l6 20l7 20l7 27l19 46q10 43 27 66l-7 47q-11 19 -13 39q-8 10 -7 20
q-23 48 -26 86l-27 73h-6h6h-6z" />
    <glyph glyph-name="B" unicode="B" horiz-adv-x="1940" 
d="M72 1718l40 -47q79 -7 121 -61v-1201q3 -89 -7 -148l-6 -13l-14 -7l-127 -54q-5 -38 0 -73l74 -34h134h33h114h27h34h87h27h114h54h47v20v87v41v47v40v33v41v27v120v74v27v27v27v27v114v20v80v41v20v27v20v33v21v26v21v134v27v26v21v120v88v27v114v20v80h-88h-47h-94h-20
h-120h-88h-27h-114h-20h-80q-52 -30 -54 -80zM951 1671q353 33 336 -282q60 -336 -208 -349v-128q272 -33 208 -409q32 -342 -336 -295v-128h20h20h27h20h27h121h20h20h20q46 10 81 7l20 6h27l27 7h20q44 15 81 14q33 20 67 20l13 13l148 74q30 40 60 54q24 47 54 73
q161 554 -517 618q570 117 524 477l-7 47q-34 52 -47 94q-32 23 -47 53l-14 7q-11 7 -13 13q-60 27 -94 61l-40 13q-64 15 -101 34l-20 6l-114 14q-79 20 -141 13h-20h-27h-114h-20h-81v-127z" />
    <glyph glyph-name="C" unicode="C" horiz-adv-x="1788" 
d="M79 834q93 -746 880 -744v128q-193 -18 -295 109l-13 45v51v52v19v19v199v45v39v45v38v32v39v26v115v71v25v26v26v26v109v19v77q11 66 32 109q128 101 276 84v128h-19h-77q-827 -165 -784 -957zM1075 1650q375 -100 456 -482l57 -45q58 3 97 26q16 38 19 71v25v20v128v19
v116v19v199l-32 39q-114 16 -167 -77h-84q-59 24 -102 25q-140 55 -244 58v-141zM1556 578q-138 -325 -475 -347v-141q451 28 623 404q-3 48 -19 84q-45 17 -90 19q-19 -15 -39 -19z" />
    <glyph glyph-name="D" unicode="D" horiz-adv-x="1952" 
d="M84 1714l40 -47q78 -7 119 -59v-1186q3 -88 -7 -146l-6 -13l-14 -7l-125 -53q-5 -38 0 -73l72 -33h20h133h86h26h120h26h27h26h113h20h79v40v20v26v20v33v20v26v20v133v26v27v20v119v86v27v112v20v80v20v86v39v47v40v33v39v27v119v73v27v26v26v27v113v20v79h-33h-26h-20
h-133h-26h-20h-119h-87h-26h-113h-20h-79q-51 -30 -53 -79zM985 1667q136 5 238 -59q34 -57 40 -106l7 -54v-874q10 -156 -20 -258q-114 -111 -265 -86v-133h20h20h33q38 7 66 7h20q60 21 113 20q604 236 609 834q-68 832 -881 835v-126z" />
    <glyph glyph-name="E" unicode="E" horiz-adv-x="1828" 
d="M93 1706l40 -46q78 -7 119 -60v-1189q4 -88 -6 -146l-7 -13l-13 -7l-126 -53q-5 -38 0 -73q58 -31 113 -33h112h27h27h19h120h86h27h113h20h79v46v40v113v40v33v40v27v119v73v27v26v27v27v112v20v80v46v40v113v40v33v40v27v119v73v27v26v27v27v112v20v80h-46h-40h-33h-40
h-27h-119h-73h-27h-26h-27h-26h-113h-20h-80q-51 -30 -53 -80zM996 1660q437 -10 564 -345q27 -29 47 -40q58 0 99 26q2 17 7 27v26v73v34v86v27v112v20v80h-40h-20h-132h-87h-26h-120h-26h-27h-27h-112h-20h-80v-126zM1288 1261q-56 -214 -259 -239v-132q211 -27 253 -220
q23 -26 33 -46q53 -10 93 -7q23 32 33 53v27v27v19v133v20v120v20v205q-40 62 -106 54zM1580 584q-172 -382 -584 -372v-126h40h46h40h33h40h27h119h73h27h26h27h27h112h20h80v27v33v66v27v73v20v20v26v20v47q2 89 -7 146q-54 35 -113 26z" />
    <glyph glyph-name="F" unicode="F" horiz-adv-x="1788" 
d="M89 1719l40 -47q78 -6 120 -60v-1194q3 -88 -7 -147l-6 -13l-14 -7l-126 -53q-5 -39 0 -74l73 -33h33h40h34h26h20h134h27h20h120h86h27h113h20h81q55 20 86 53q-3 47 -26 74q-99 10 -161 60l-6 33v207v93v20v34v20v26v21v133v47v113v20v80v27v20v133v27v20v120v87v27
v113v20v80h-47h-40h-33h-40h-27h-120h-73h-27h-27h-26h-27h-114h-20h-80q-51 -30 -53 -80zM983 1659q433 18 574 -340l13 -7l33 -27q54 0 94 20l13 27v27v26v120v27v27v27v113v20v80h-40h-47h-86h-207h-94h-20h-33h-20h-27h-20h-133v-140zM1336 1305l-46 -33
q-67 -252 -314 -234v-146q254 13 307 -214l13 -13l27 -40h87q23 31 33 53v20v87v27v26v20v20v20v20v94v33v20v27v20v133l-13 40l-54 20h-6h6h-13h7h-14h7h-13h6h-13h7h-14h7h-7z" />
    <glyph glyph-name="G" unicode="G" horiz-adv-x="1915" 
d="M101 912q61 -746 811 -818v128q-140 -18 -217 83l-6 32v38v32v38v39v32v19v83v25v26v108v20v76v32v26v115v25v71v19v19v19v19v26v115v44q-7 112 19 192q104 93 230 77v19v19v83h-90q-739 -171 -747 -881zM1065 1665q404 -28 524 -440q24 -29 39 -58q62 -8 108 0l32 58v25
v70v109v70v26v108v19v77q-8 30 -19 51q-109 23 -198 -76h-32l-13 6l-76 26h-20l-19 12q-16 2 -25 7l-71 6l-19 6l-19 7h-19q-38 9 -70 6l-103 13v-128zM976 867l26 -32q86 -13 140 -38l19 -39v-211q48 -274 -127 -319v-134q404 21 702 230v32v25v26v19v83v26v70v45v19v19
q-3 59 7 102q111 53 70 147q-53 18 -90 19h-44h-83h-198h-90h-19h-32h-19h-26h-19h-128q-86 -19 -89 -89z" />
    <glyph glyph-name="H" unicode="H" horiz-adv-x="2268" 
d="M95 1710l40 -40q68 -8 113 -46l6 -47v-1153q3 -88 -6 -146l-20 -27q-136 -11 -126 -119l73 -33h39h47h40h33h39h27h119h73h27h26h27h26h113h20h80q53 11 86 33q8 114 -126 119l-20 40v40v46v40v113v39v34v39v27v119v73v27v26v27v26v113v20v79v27v33v27v19v34v33v20v79v20
v20q-3 78 7 133q67 48 132 59q13 42 13 73q-38 32 -73 40h-86h-26h-113h-20h-79h-73h-34h-86h-26h-113h-20h-79q-78 -18 -80 -86zM1275 1710l33 -33q70 -17 113 -53q8 -62 7 -106v-491h-27h-86h-26h-27h-27h-112h-20h-80v-126h27h86h27h26h27h112h20h80v-491q3 -78 -7 -132
l-20 -27q-116 -6 -126 -106q37 -33 67 -46h19h120h20h205h86h73h20q159 -7 259 13l33 33q-13 106 -133 106l-20 27q-11 59 -6 112v40v47v86v205v93v20v33v20v27v19v133v40v33v20v33v27v19v34v33v20v79v20v20q-3 78 6 133l40 33q105 3 113 99q-38 32 -73 40h-86h-27h-112h-20
h-80h-73h-33h-86h-27h-112h-20h-80q-73 -20 -73 -86z" />
    <glyph glyph-name="I" unicode="I" horiz-adv-x="1100" 
d="M87 1720l40 -47q78 -6 120 -60v-1194q3 -88 -7 -147l-6 -13l-14 -7l-126 -53q-5 -38 0 -73l60 -27q56 -10 93 -7h33h27h120h27h27h26h114h53h47q193 -28 280 54l-7 53l-46 27q-62 11 -100 46v20q-15 77 -7 134v53v20v20v207v113v20v80v27v20v134v26v20v120v87v27v113v20
v80q50 59 120 60l33 27q5 38 0 73q-51 25 -93 27h-87h-26h-114h-20h-80h-73h-34h-86h-27h-114h-20h-80q-51 -30 -53 -80z" />
    <glyph glyph-name="J" unicode="J" horiz-adv-x="1781" 
d="M759 1716q62 -72 170 -79l13 -32l6 -39v-1005q9 -154 -13 -254q-76 -81 -176 -91v-124q483 -36 724 241q41 100 52 170v85v45v91v20v117v85v26v111v20v78v26v26v65v20v65q-8 155 13 254l46 20q59 15 91 39q5 38 0 72l-26 19q-62 10 -104 7h-39h-46h-39h-33h-39h-26h-117
h-72h-26h-26h-26h-26h-111h-20h-78q-59 -21 -72 -78zM94 451q121 -325 541 -353v131q-86 6 -137 59q286 97 190 352q-142 137 -320 124q-271 -61 -274 -313z" />
    <glyph glyph-name="K" unicode="K" horiz-adv-x="2178" 
d="M101 1713l40 -40q68 -8 112 -46l7 -47v-1153q3 -88 -7 -146l-19 -26q-120 -10 -133 -106q43 -40 86 -47h33h113h27h33h86h26h113h20h80q164 -26 271 47q-15 102 -132 106l-20 39v20v133v53v20v20v205v113v20v79v27v20v132v113v86v27v72v47q-3 88 7 146l39 33
q103 5 113 93q-25 26 -53 39q-68 9 -113 7h-40h-33h-39h-27h-119h-73h-27h-26h-27h-26h-113h-20h-79q-78 -18 -80 -86zM1341 1666q126 -33 119 -152l-46 -86l-20 -20l-20 -20l-13 -20l-20 -20l-14 -6q-19 -33 -39 -53l-60 -67l-33 -39l-27 -20l-13 -20l-13 -20l-13 -13
l-14 -20l-13 -13l-13 -14l-13 -6q-42 -67 -87 -100v-225l14 13l13 7q51 79 113 119q18 -26 19 -53l14 -20l6 -20l33 -73l7 -13q20 -63 40 -99l33 -100q37 -56 46 -106q35 -59 40 -112q-131 -58 -112 -133q48 -33 92 -40h33h113h33h206h93h53h20h19h54l106 7l46 40
q0 63 -126 126l-13 13l-7 26q-28 37 -33 73l-13 14l-7 19l-40 80l-13 40q-43 59 -53 112l-13 14l-7 13l-13 40q-8 6 -7 13q-30 50 -46 86l-7 27l-13 26l-13 20l-14 27l-46 106l-13 19l-7 27q-11 7 -13 13l-27 66l-6 14q-22 31 -27 59q-36 50 -46 93l66 60q179 230 431 285
q35 41 40 86l-40 46l-40 7h-86h-26h-120h-73h-26h-27h-26h-27h-112h-20h-80q-129 -73 7 -133z" />
    <glyph glyph-name="L" unicode="L" horiz-adv-x="1755" 
d="M83 1707l40 -40q68 -8 112 -46v-20q10 -25 7 -53v-1147q3 -78 -7 -132l-39 -34q-116 -3 -106 -106l20 -19q67 -15 112 -14h33h93h33h27h119h27h26h27h112h20h80v20v133v46v47v26v33v86v27v113v19v80v26v27v20v119v86v27v112v20v80v20v73v20v19v27v119q-2 58 13 100l13 13
q62 26 113 26q20 15 40 20q15 42 6 80q-36 20 -73 26l-46 7h-40h-46h-86h-206h-93h-19h-34h-19h-27h-20h-132q-78 -18 -80 -86zM1495 633q-128 -406 -517 -398v-139h33h27h86h33h20h20h20h19h20h20h20h66q158 -8 259 14l6 13l27 33v26v34v26v33v27v20v33v33v20v86
q3 101 -7 166q-48 28 -92 26q-40 -30 -60 -53z" />
    <glyph glyph-name="M" unicode="M" horiz-adv-x="2446" 
d="M82 1708l47 -47q98 -10 159 -66l13 -40q19 -19 20 -40l14 -14v-20l53 -99l6 -20l7 -20l13 -20l7 -20l13 -13l7 -20l73 -147l7 -20q33 -56 46 -99l27 -40l13 -33l20 -47l20 -33l20 -34l13 -39l20 -34l14 -40q21 -24 26 -53l60 -106l7 -27l13 -26q45 -64 60 -120l13 -20
l13 -20l14 -27l6 -13l14 -40l13 -13l7 -20q18 -27 19 -53q32 -40 40 -73q50 -2 87 13l13 53l33 73q12 42 27 67v20l13 13q25 93 53 146l14 40l6 20l14 27l6 26l7 20l7 20q38 87 53 147l20 26l6 40l40 80q14 53 27 86l13 34l7 26l6 20l7 13l7 20l33 74q17 68 40 113l7 26
l6 13l7 14q16 53 33 86v-1157q-61 -75 -173 -80q-21 -38 -20 -73q42 -35 93 -46h40h47h40h33h40h26h120h73h27h26h27h27h113h20h79q95 3 100 86q-57 57 -126 60l-27 27l-7 53v26v20v34v20v26v20v133v40v113v20v80v86v27v113v20v80v73v33v86v27v113v20v80q50 58 120 60l33 26
q9 62 -26 93l-33 7h-27h-20h-133h-27h-20h-119h-87h-26h-113h-20h-80l-7 -27l-13 -13q-15 -65 -40 -106l-13 -40l-13 -40l-20 -40q-24 -63 -47 -100l-6 -33q-24 -50 -34 -93l-13 -20q-10 -50 -33 -80q-4 -33 -20 -60l-7 -20l-7 -20l-13 -20q-13 -63 -40 -106
q-15 -58 -40 -93q-20 7 -33 20l-6 13l-7 20q-18 37 -27 67q-8 6 -6 13q-30 45 -47 80l-13 33l-20 27l-7 33l-20 40l-13 33l-20 40l-13 27l-7 26q-27 42 -33 80l-13 27l-14 19l-6 27q-7 10 -7 20q-10 8 -13 20l-7 20l-13 20l-14 46l-26 40l-47 120h-20h-133h-86h-27h-119h-27
h-26h-27h-113h-20h-80q-51 -37 -53 -86zM321 517q4 -99 -20 -173q-73 -104 -179 -146q-28 -33 -27 -66q40 -30 73 -40h87h73h27h20h66h47h19h47q86 -4 146 13q67 98 -126 160l-7 13q-33 21 -46 40q-14 33 -27 53l-6 27v26v73v34v86v27v113v20v79q-27 37 -34 74
q-20 29 -26 59l-14 20q-16 40 -33 67v20q-41 71 -60 119v-698z" />
    <glyph glyph-name="N" unicode="N" horiz-adv-x="2124" 
d="M86 1685q23 -11 40 -26q83 -12 139 -53l26 -40l27 -39l19 -20l7 -20q36 -33 53 -66q35 -45 53 -79q11 -7 13 -14l13 -13l27 -40l26 -39q8 -7 7 -13q46 -43 66 -93q25 -16 33 -40l13 -13q46 -69 86 -112l26 -46q25 -25 33 -53l14 -7l6 -13l13 -7q35 -63 67 -99
q39 -51 59 -86l26 -26l14 -27l26 -26q27 -51 53 -79l13 -27q33 -31 46 -59l20 -20l7 -20q43 -41 59 -86l20 -13l7 -13l13 -14l13 -19l86 -126h112h73h27h112h20h79v26v20v33v20v27v19v133q-61 62 -86 119q-21 16 -33 39l-26 33l-14 27q-11 6 -13 13l-13 20l-13 13l-7 13
l-13 13l-86 133q-21 16 -33 39q-43 45 -59 86q-42 35 -53 73q-18 15 -27 33l-33 33l-66 99q-13 18 -20 33q-16 15 -26 27l-7 13l-13 13l-7 20q-34 36 -52 66l-20 33l-20 20l-20 33l-13 26l-13 7l-66 92l-14 14l-6 13q-22 28 -33 53l-20 20l-20 39q-54 55 -79 106h-86h-27
h-119h-72h-27h-26h-27h-26h-112h-20h-79q-60 -45 -47 -106zM1474 1652q98 -51 132 -145l7 -46v-622l20 -13l6 -26q93 -96 132 -172l7 26v33v86v27v112v20v79v93v26v26v27v20v66v112q-2 88 13 146q86 120 212 158q13 33 13 60q-26 28 -53 46h-20h-20h-19h-86h-73h-26h-27h-26
h-27h-112h-20h-79q-103 -93 46 -139zM304 601q7 -142 -13 -231q-79 -127 -205 -172q-6 -40 7 -73q43 -11 73 -26h19h20h20h86h26h27h26h113h53h46q53 7 92 26q14 35 14 60l-40 40q-139 41 -185 158l-7 33l-6 33v47v39v33v40v26v119v73v26v27v26v27v112v20v79l-14 13l-13 27
q-11 7 -13 13l-20 20l-13 20l-13 13q-42 68 -80 106v-754z" />
    <glyph glyph-name="O" unicode="O" horiz-adv-x="2031" 
d="M84 915q68 -782 855 -829v19v20v83q-160 -21 -238 97l-6 45q-10 25 -7 51v129v19v19v200v45v38v45v39v32v39v25v116v71v25v26v26v26v109v19v77q12 47 26 78q106 75 225 64v19v19v84h-64q-781 -127 -791 -875zM1061 1668q147 8 238 -77q28 -89 20 -155v-893
q8 -152 -20 -251q-101 -106 -238 -84v-122h52h45q10 6 19 6l90 20h20q46 24 83 32l19 6l20 7q25 16 51 19q37 31 71 39q498 361 360 938q-180 616 -830 637v-122z" />
    <glyph glyph-name="P" unicode="P" horiz-adv-x="2028" 
d="M97 1710l40 -46q77 -7 118 -60v-1182q4 -87 -6 -145l-7 -13l-13 -7l-125 -52q-5 -38 0 -73l79 -33h39h113h39h33h40h26h119h73h26h27h26h26h113h20h79q58 18 92 53q-3 46 -26 72q-98 10 -159 60l-6 33v33v39v27v119v72v27v26v27v26v112v20v79v46v86v27v112v20v79v112v27
v33v85v27v112v20v79h-40h-46h-40h-33h-39h-27h-119h-72h-27h-26h-26h-27h-112h-20h-79q-51 -30 -53 -79zM1021 1657q187 23 304 -79l7 -33l6 -27v-475q-13 -61 -33 -99q-117 -83 -290 -59v-132q894 -55 911 561l-7 52l-6 47q-20 33 -20 59q-12 7 -13 13l-7 20l-26 46
q-32 23 -46 53q-68 36 -106 79h-20l-13 14l-20 6l-106 46l-19 7l-113 13l-19 7h-20l-73 13h-20h-19h-34h-19h-27h-20h-132v-132z" />
    <glyph glyph-name="Q" unicode="Q" horiz-adv-x="1997" 
d="M97 870q94 -706 836 -754v127q-131 -13 -215 63q-19 51 -26 89v19v82v26v31v83v25v108v19v76v31v32v89v31v89v25v19v64v19v19v63q-7 151 13 247q100 100 228 89v114h-108q-775 -177 -728 -925zM1053 1687q148 5 222 -95q10 -39 13 -69v-1078q-167 70 -292 -19
q4 -44 26 -69q92 -8 152 -51q120 -57 -121 -70v-126l19 6h19h26q23 10 50 6l45 7q47 19 82 19q334 -200 608 50q-6 45 -38 70q-163 -55 -298 6q452 396 292 938q-190 567 -805 583v-108z" />
    <glyph glyph-name="R" unicode="R" horiz-adv-x="2143" 
d="M83 1699q58 -54 125 -59l27 -26v-20q9 -25 6 -53v-1106q3 -101 -6 -165l-27 -26q-112 -4 -125 -99q36 -35 79 -46h86h204h92h20h33h20h26h20h132q141 -20 237 46q-2 44 -20 72q-114 10 -171 79v132v53v92v20v33v19v27v20v131v112v20v79v86v26v112v20v79v72v33v86v26v112
v20v79h-46h-86h-204h-93h-19h-33h-20h-26h-20h-132q-76 -20 -79 -86zM966 1647q211 29 283 -132v-408l-6 -47q-117 -113 -277 -85v-132q155 18 257 -72v-20q21 -25 20 -46v-244q-4 -61 6 -105l13 -73q160 -237 429 -211q288 56 349 277q-8 7 -7 13q-33 20 -52 40
q-79 -17 -125 -73l-47 20v26v27v26v26v112v20v79q-23 46 -33 79q-149 147 -336 158l-19 7l-86 20q619 120 428 625q-23 17 -33 40q-31 21 -46 46q-49 21 -79 53q-54 13 -92 39h-20l-13 13q-66 5 -112 27q-69 -3 -112 6h-26q-40 -1 -73 7h-26h-20h-26h-119v-138z" />
    <glyph glyph-name="S" unicode="S" horiz-adv-x="1672" 
d="M100 1378q-23 -75 -19 -134q19 -49 19 -84l57 -115q12 -6 13 -13q21 -16 32 -38q63 -45 96 -84l26 -6l13 -19q16 -2 25 -7l20 -19l32 -13l57 -25l32 -13l32 -13l26 -13h19q34 -19 64 -25q44 -20 77 -26l45 -19q59 -24 96 -32q115 -47 186 -128q77 -290 -224 -314v-141h64
q461 33 647 378q123 342 -180 531l-12 13q-42 24 -64 45l-39 13l-26 13l-38 13l-38 19l-26 6l-13 7l-57 25q-17 2 -26 7l-13 6l-102 32l-20 7l-12 12q-45 8 -71 20l-19 6q-58 34 -103 51q-232 274 109 359v19v19v20v83h-64q-485 -38 -621 -423zM907 1660q351 -77 429 -397
l45 -45q69 -2 115 26l13 25v32v26v32v26v32v83v25v109v20v77l-32 51q-98 11 -160 -71h-32l-13 7h-19l-13 13l-109 25l-13 7l-19 6l-13 6h-25q-24 8 -52 7q-59 14 -102 13v-135zM87 680v-289q-6 -153 13 -250q49 -30 102 -25q48 49 103 70h32q67 -14 109 -38l19 -7h19
q123 -48 231 -44v19v19v19v84q-373 86 -474 467q-51 34 -103 26q-33 -29 -51 -51z" />
    <glyph glyph-name="T" unicode="T" horiz-adv-x="1938" 
d="M84 1495q-8 -157 14 -258q49 -32 105 -33q42 28 66 53q33 350 278 383v20v132h-26h-27h-119h-26h-27h-26h-113h-19h-80v-297zM659 285q-77 -61 -165 -66q-23 -50 -6 -93l85 -26h47h39h47h39h33h40h26h119h73h27h26h26h27h112h20h79q52 18 86 46q-14 113 -145 99l-33 27
l-13 26v27v26v33v86v27v112v20v79v26v113v20v79v46v40v112v40v33v40v26v119v73v26v27v26v26v113v20v79h-40h-205h-92h-20h-33h-20h-27h-19h-133v-1507zM1373 1640q101 -15 166 -73q97 -157 112 -310q104 -98 185 6v33v113v26v33v86v26v113v20v79h-26h-27h-119h-26h-27h-26
h-113h-19h-80v-152z" />
    <glyph glyph-name="U" unicode="U" horiz-adv-x="2104" 
d="M89 1741q26 -93 123 -90l26 -26q9 -74 6 -129v-937q18 -105 39 -168l26 -39q8 -6 6 -13q39 -25 58 -58q347 -202 711 -174v52v19v84q-138 -7 -233 71q-21 52 -26 90l-6 46v51v46v25v110v20v77v39v39v45v19v84v91v38v33v26v25v20v84v26v71v45q-3 86 6 142l26 26
q107 3 123 97q-26 24 -52 39l-32 6h-39h-32h-26h-19h-130h-25h-20h-116h-84h-26h-110h-19h-77q-54 -16 -78 -52zM1361 1709l33 -32q106 -33 168 -110q11 -34 26 -58l6 -33v-562q81 -599 -368 -652v-155h19l45 6q10 8 20 7l19 6h20l19 7l13 6l19 7q45 22 78 32
q145 82 226 207l13 45l6 19l7 13l6 26l19 84v19v20v84v110v32v26v32v84v26v39v25v65v26v71v19v20v26v109v52l7 45q65 142 200 181q24 34 26 71q-39 28 -71 39h-110h-26h-32h-84h-26h-110h-19h-77q-76 -19 -72 -84z" />
    <glyph glyph-name="V" unicode="V" horiz-adv-x="2052" 
d="M102 1699q7 -10 7 -20q74 -28 119 -60l14 -53q33 -51 39 -100l7 -20q38 -71 46 -126q7 -10 7 -20q8 -6 7 -13l46 -113l20 -46l14 -47l13 -46l20 -34l13 -40l13 -39l7 -14l13 -40q20 -49 27 -79q10 -22 13 -40q20 -28 27 -53l13 -34l7 -33q26 -48 33 -86l6 -20l14 -27
l6 -26q27 -48 34 -87l6 -20q22 -36 27 -73l13 -20l7 -13l13 -60q33 -55 40 -106h26h34h86h27h112h20h80q10 42 27 66v20l13 20q25 90 53 140l-7 53l-13 13l-6 34l-14 26l-20 73q-33 58 -39 106q-9 7 -7 14q-28 61 -40 106l-13 40q-7 10 -7 20q-17 26 -20 53q-28 60 -40 106
q-21 50 -26 80q-30 63 -40 113l-13 20v20l-14 20q-20 53 -26 93q-20 28 -27 60l-60 166q7 103 107 119l20 27q-7 50 -27 80l-40 6l-33 7h-133h-33h-113h-27h-33h-86h-27h-113h-20h-79q-95 -17 -100 -93zM1371 1666q113 -24 153 -113l-7 -67l-20 -33l-7 -33l-6 -33l-14 -34
l-6 -26l-40 -106l-7 -27l-6 -20q-12 -35 -20 -53l-7 -27l-7 -26l-6 -20l-13 -20l-7 -40l-13 -27q-27 -104 -60 -166v-20l20 -46q28 -105 66 -166l13 40l7 13q13 60 33 100l14 39l39 113l7 20q35 120 67 186q1 17 6 27l7 27l6 13q9 35 20 60l7 26l13 27l7 20q13 50 26 79
l7 20l13 54l47 99q100 120 239 153q18 35 20 66l-27 34q-54 11 -93 13h-73h-33h-86h-27h-113h-20h-79q-143 -47 -40 -126z" />
    <glyph glyph-name="W" unicode="W" horiz-adv-x="2768" 
d="M94 1705q7 -10 7 -20q75 -28 120 -60l14 -54q33 -52 40 -100l6 -20q39 -72 47 -127q7 -10 7 -20q8 -7 7 -14l47 -114l20 -47l13 -46l13 -47l20 -34l14 -40l13 -40l7 -13l13 -41q20 -50 27 -80q10 -22 13 -40q21 -29 27 -54l14 -33l6 -34q27 -48 34 -87l6 -20l14 -27
l7 -26q26 -49 33 -87l7 -20q21 -37 26 -74l14 -20l7 -14l13 -60q33 -55 40 -107h27h33h87h27h114h20h80q10 42 27 67v20l14 20q25 91 53 141v20q-28 75 -40 127q-10 18 -13 34l-47 113l-47 128l-40 113l-7 34l-13 27l-54 147l-7 13l-13 40l-7 14v20q-8 7 -6 13
q-44 86 -54 154q-8 7 -7 14q-8 6 -6 13l-7 13q-20 52 -27 88q-40 75 -40 147q49 60 114 80q13 52 -7 94l-33 13l-34 7h-20h-134h-87h-27h-120h-27h-27h-26h-114h-20h-81q-95 -17 -100 -94zM1366 1759l-7 -20q-20 -55 -27 -94l-13 -47l-13 -27q-2 -16 -7 -26l-7 -41l-13 -20
v-26l-14 -47l-6 -20l-7 -21q-12 -35 -20 -53v-20l-13 -14l-7 -40l-7 -20l-33 -107l13 -13l13 -47q27 -92 61 -147v20l13 20q23 90 54 140l6 -13l14 -40q20 -50 26 -81q10 -21 14 -40l20 -33l13 -40l14 -34l13 -40q8 -7 7 -13q30 -62 40 -108l13 -33l14 -40q10 -19 13 -34
l7 -13l27 -60l6 -34l14 -27l26 -67v-20l14 -13l20 -74q7 -10 7 -20q8 -6 6 -13l47 -114h20h208l6 13q14 61 34 101l27 67v20l6 20l27 67l7 20q30 74 40 127l-20 47l-13 54q-7 10 -7 20l-14 26l-6 27q-7 10 -7 20l-13 14q-19 70 -41 114l-13 53q-25 42 -33 74l-14 40
q-25 64 -33 107l-20 34v20q-25 48 -34 87l-13 26l-14 41l-6 33l-14 27l-13 20l-7 27l-6 20l-14 27l-6 20l-7 20q-10 33 -20 53l-7 27l-7 20l-6 20l-14 20v20q-25 41 -26 81l-21 40h-26h-114h-20h-81zM2162 1672q112 -44 114 -148l-13 -40l-7 -26l-13 -41l-7 -33l-13 -40
q-19 -39 -34 -114l-13 -20l-7 -40l-7 -20l-6 -21l-7 -20l-13 -13l-7 -40l-7 -20l-33 -107l13 -14l13 -47q27 -92 61 -147l13 40l13 34l14 40l7 13q11 47 26 81l7 13l27 94l6 27q34 77 47 127l7 20l7 27q21 48 26 80q16 32 21 53l20 54l47 107q76 122 194 161q11 33 13 60
q-23 30 -47 47h-27h-26h-121h-27h-26h-27h-114h-20h-80q-141 -70 6 -127z" />
    <glyph glyph-name="X" unicode="X" horiz-adv-x="1954" 
d="M125 1690q81 -42 126 -80q5 -10 14 -14l6 -20l7 -13q43 -50 60 -100q40 -41 53 -86l27 -47q58 -68 79 -126l27 -40q23 -25 33 -53l27 -47q43 -48 60 -93q15 -17 20 -33q35 -39 53 -80l13 -27q15 -16 20 -33l20 -20l20 -33l27 -47q26 -38 40 -66l59 -87l14 -20l13 -26
l13 -14l7 -20l13 -13l7 -20l13 -7l20 -46q40 -45 53 -87q-30 -75 -99 -106q5 -50 33 -80h27l26 -13h33h40h93h34h93h33h73h27h20h66h20h53h20h47h47q39 11 73 13q25 40 26 80q-66 58 -126 80l-27 40l-26 40l-20 39l-7 14l-40 53l-13 27l-7 20q-20 16 -33 39l-13 40
q-50 55 -67 107q-20 16 -33 40l-20 46q-55 59 -73 120l-27 33l-20 34l-20 40l-26 39l-20 34q-42 53 -60 93l-7 13q-21 27 -33 53l-13 20q-22 34 -34 60q-8 7 -6 14q-30 35 -47 59l-6 20l-14 14l-13 20l-7 26q-60 80 -86 133l6 47q100 40 74 126l-80 27h-47h-40h-33h-40h-26
h-120h-73h-27h-27h-26h-27h-113h-20h-80q-104 -15 -86 -106zM1269 1670q103 -32 113 -127l-7 -20l-6 -13q-24 -30 -40 -47l-7 -13q-43 -73 -86 -113q36 -92 93 -146l6 13l7 13q62 92 120 140q155 246 392 346q7 40 -6 73l-73 20h-27h-20h-120h-86h-27h-113h-20h-80
q-118 -62 -13 -126zM610 705l-20 -20l-53 -73l-26 -27l-14 -27l-13 -20l-20 -20l-20 -26l-20 -20l-53 -73l-13 -14l-73 -93l-14 -6l-13 -7q-77 -53 -160 -67l-33 -33q3 -46 27 -73l53 -13h20h20h206h20h20h20q135 -7 226 13q35 53 7 106q-79 25 -127 60q-15 40 -13 74l7 19
l13 20l7 14l26 40q37 53 67 79q25 47 53 74l-13 20q-40 76 -80 119z" />
    <glyph glyph-name="Y" unicode="Y" horiz-adv-x="1978" 
d="M86 1707q12 -7 13 -14l20 -13q57 -31 86 -59l20 -40l14 -14l33 -79l13 -7q18 -50 40 -79l13 -34l20 -33l46 -86l14 -27l6 -26l20 -20l40 -86q25 -37 40 -67l6 -26q29 -37 34 -66l13 -7l13 -40l13 -13l14 -20q20 -55 46 -93v-232q10 -158 -13 -259l-33 -26
q-135 8 -146 -100l33 -33l46 -7q38 -8 67 -6h39h47h86h206h93h20h33h20h26h20h133q56 10 93 46q-15 113 -146 100l-33 26l-14 27v26v27v20v119v86v27v113v20v79q0 53 -13 93q-15 20 -20 40q-8 6 -7 13l-13 7l-26 46l-7 13q-23 32 -33 54l-13 39q-12 12 -14 27l-20 20l-13 26
l-13 27l-40 73l-13 33q-8 7 -7 13q-23 25 -33 53l-7 20q-21 27 -33 53l-13 20l-7 20l-40 73l7 60q138 48 80 146l-47 6q-36 10 -66 7h-133h-33h-113h-26h-33h-87h-26h-113h-20h-79q-80 -18 -80 -86zM1320 1660q129 -36 119 -159l-6 -20l-7 -26l-33 -47q-10 -35 -20 -53
l-13 -20l-27 -40l-7 -19l-13 -20q-26 -52 -53 -87l7 -39l13 -14l7 -13l13 -40q33 -36 46 -73l7 20l7 20l13 13l20 47q26 28 40 59l6 14l80 132l6 14l7 13l40 80l13 13l7 13l26 40q43 94 107 146q89 41 152 60q22 46 13 86q-44 26 -86 33h-33h-27h-119h-27h-26h-27h-112h-20
h-80q-154 -65 -13 -133z" />
    <glyph glyph-name="Z" unicode="Z" horiz-adv-x="1674" 
d="M98 1451q-4 -88 6 -146q55 -35 114 -27l33 33q68 205 246 287h20l7 13h20l13 13l34 7l20 7h20q68 20 120 20l6 20l7 13q35 58 53 100h-40h-20h-133h-87h-26h-120h-27h-26h-27h-113h-20h-80v-340zM950 1751l-20 -40l-20 -40l-13 -20l-7 -20l-13 -20l-7 -20l-13 -13
l-60 -120l-33 -47q-28 -78 -67 -126l-73 -140l-27 -40l-20 -40l-13 -27l-7 -20l-13 -20q-7 -12 -13 -13l-7 -20l-13 -27q-7 -12 -14 -13v-20l-13 -14l-7 -13l-40 -73l-40 -67l-33 -73l-13 -27q-40 -53 -53 -93l-20 -27l-14 -20l-26 -66l-14 -7q-13 -45 -33 -73
q-7 -12 -13 -14q-22 -63 -60 -106v-20q-14 -74 -7 -127h113h27h113h73h27h113h54h46l7 13l7 20l53 100l67 120l26 40q13 34 27 54l6 20l14 13q25 60 53 93q13 40 33 60l14 27l6 20l67 113l13 20q19 52 47 80l20 47q25 53 53 86q17 54 47 87l7 13q26 77 66 120q22 54 40 87
l20 20q12 36 27 66l20 20l6 20l14 20l33 74l13 20l7 13l47 73v20v20v20v87h-94h-20h-119h-87h-27h-113h-20h-80zM1437 585q-155 -368 -540 -373v-20q-45 -59 -60 -107h33h40h20h134h86h27h120h27h26h27h113h20h80v33v27v20v33v20v27v27v73v27v20v46q2 90 -7 147
q-51 36 -100 33q-31 -18 -46 -33z" />
    <glyph glyph-name="bracketleft" unicode="[" horiz-adv-x="2442" 
d="M984 1871v-169q21 -15 31 -37l-5 -28q-12 -12 -26 -16v-535l6 -192q23 -125 109 -134l-8 -84l20 -41q21 -42 184 -71h212h56h21h87h16h61q-3 31 21 49q12 -13 15 -28q37 8 57 -21h24h22h26h20h25h68h20h87h15h61q10 22 21 37q50 5 62 -37h87h15h62l5 37v78v16v98v71v21
v93v16v66l-5 26h-15h-16h-159q43 -50 -36 -42l-10 21q-27 -6 -36 21h-36h-31h-26h-30h-20h-93h-57h-20h-21h-20h-21h-102q-171 36 -200 214v21v93v16v65q-33 35 -36 76q7 37 36 34v70v22v93v16v65l-25 11h-88h-20h-20h-17h-92h-67h-20h-87h-15h-63q-4 -10 -9 -11zM1235 1309
q-24 -7 -28 21q20 19 33 40q45 -27 -5 -61z" />
    <glyph glyph-name="backslash" unicode="\" horiz-adv-x="1184" 
d="M114 1794l24 -42l6 -18l6 -18l18 -42q21 -27 30 -54q8 -24 18 -42l12 -24q15 -48 30 -78l12 -18v-18l12 -12l6 -24q43 -79 60 -138q36 -66 54 -114l6 -12l54 -132l18 -42l24 -42l18 -42l12 -42l24 -36v-18q33 -51 42 -96l18 -30l12 -36l18 -30l12 -30l12 -30l12 -24
l12 -30l12 -30l18 -30l6 -30q26 -37 36 -66l6 -30q25 -32 30 -66q7 -9 6 -18q10 -8 12 -18l12 -24l6 -18l12 -24l66 -150h78h24h24h24h102h48h42l-6 18l-6 24l-12 12l-6 24q-44 80 -60 138l-18 42l-12 12l-6 12v18q-26 38 -36 78q-7 9 -6 18q-31 50 -42 90q-31 55 -42 102
l-18 36l-18 42q-7 9 -6 18q-25 33 -30 66l-12 12v18q-37 63 -54 108l-18 42l-18 42q-33 70 -48 120l-36 66l-6 24l-12 18l-6 24l-6 18l-12 12l-54 138q-27 43 -36 84l-12 18l-12 18l-6 24l-24 54l-6 18l-12 18l-6 24l-12 18l-6 24l-12 12v18q-47 76 -60 138l-18 6h-18h-108
h-18h-186z" />
    <glyph glyph-name="bracketright" unicode="]" horiz-adv-x="2121" 
d="M836 1872v-166q20 -14 29 -36l-5 -27q-11 -13 -24 -16v-371q-55 -123 -187 -153h-81h-15h-58q-21 -31 -47 -16q-9 -12 -20 -16l-38 32h-61h-82h-62h-67h-15h-67l-62 5l-10 -21v-380q-6 -59 -5 -96l20 -26h14l9 5h14h20h86q5 21 19 27l9 -6q9 -6 10 -10q31 9 53 -11h53h48
h15h38h37h53q23 15 44 11l33 16q10 -13 14 -27h67h53h24h14h19h16h95q55 68 122 1l155 -3l101 63l53 55l56 164l1 233v91v21v27v70v21v90v16v65q-31 34 -33 74q6 37 33 33v68v23v90v16v64l-23 11h-82h-19h-19h-16h-85h-63h-18h-82h-14h-58q-5 -10 -9 -11zM1114 1320
q-22 -7 -26 20q18 20 30 40q41 -27 -4 -60zM559 836q-8 -28 -33 -24q-46 -63 -22 35q35 2 55 -11z" />
    <glyph glyph-name="asciicircum" unicode="^" horiz-adv-x="2252" 
 />
    <glyph glyph-name="underscore" unicode="_" horiz-adv-x="2129" 
d="M-18 1092l-4 -91v-371l16 -38h16h12l12 -5h68h32h28q8 32 32 32l8 -16q39 3 68 -16h16h20h52h16h68h12h48h16h16h12h72h52h16h68h32h28l12 32q32 -4 48 -32h28h56h12h20h12h16h12h80h52h28h56h12h72h52h16h68h32h28q26 24 52 21l20 27l32 -48h24h24h28h16h12h80h56h12h72
h52h16h68h12l48 5l16 33v21v22v21v22v16v21v16v22v96v17v166l-20 27h-12l-12 11h-16h-16h-68h-12h-48q3 -38 -24 -27q-11 -14 -24 -22q-33 5 -24 49h-24h-28h-24h-28h-52h-124h-56h-12h-20h-12h-16h-12h-80q0 -49 -40 -38q-17 -22 -36 -27l-20 27q-34 -3 -60 11q5 35 -24 27
h-56h-12h-20h-12h-16h-12h-80h-68h-12h-48h-16h-12h-80h-16h-12h-72h-52h-16h-68h-12h-48q-24 -25 -48 -27q-37 4 -60 27h-20h-52h-68h-52h-16h-44h-28q-53 -3 -88 5zM606 856q-23 -21 -32 -43q-45 37 12 69q17 -5 20 -26zM1106 743q6 20 16 32q77 -58 -16 -32z" />
    <glyph glyph-name="grave" unicode="`" horiz-adv-x="2283" 
 />
    <glyph glyph-name="a" unicode="a" horiz-adv-x="2022" 
d="M841 1797l-5 -27l-5 -10l-6 -22q-12 -31 -16 -59q18 -42 22 -81q34 -26 48 -59q-16 -25 -21 -48l16 -22l21 -91l6 -11l16 -64l10 -22l6 -32l5 -22l11 -43l11 -10v-17l32 -107q36 -18 43 -54l-27 -27l6 -10q3 -28 16 -49l5 -27l11 -16l5 -48q35 -85 43 -145h-16h-70
q-16 -28 -43 -17q-9 6 -11 11l-16 6h-21h-92h-16h-64v-17q-13 -25 -16 -43l-6 -16l-16 -75h48q10 25 33 27h43l10 -27h17h21h97q5 16 16 27q19 -8 22 -27h107q5 23 27 27q42 -41 0 -75q50 -110 38 -215l-17 -6l-10 -10l-38 -22q-32 -10 -54 -27q0 -39 11 -70l86 -27h27h91
h22h27h70h21h92h16h64q17 27 43 38q36 -10 49 -38h21h16h108q90 8 102 92l-27 27q-147 36 -145 182q-97 -10 -27 86q-31 53 -32 108q-9 15 -11 27q-32 -2 -43 27q28 59 0 107l-11 43l-37 135q-38 6 -54 32q5 32 27 48l-6 38q-8 17 -10 32q-19 32 -17 65q-26 36 -26 75
q-6 8 -6 16l-11 49q-28 49 -32 96l-48 43q0 34 16 54l-5 22l-17 69l-5 22q-6 8 -5 16l-11 11l-5 16l-6 43l-27 86q-55 18 -86 43h-16h-21h-92h-16h-64q-13 -23 -38 -27q-21 10 -32 27h-17h-16h-107zM729 1442l-17 -16l-10 -53l-11 -22l-6 -21l-21 -43q-11 -52 -27 -87
q-28 -107 -54 -166l6 -49l-59 -91l-6 -38l-5 -21l-6 -16l-21 -43v-16l-11 -43q-25 -48 -32 -86q15 -20 16 -43q-21 -14 -43 -17q-3 -30 -16 -59l-11 -16l-5 -21v-22l-6 -11l-10 -10q-19 -61 -49 -97l11 -11l-11 -32q-30 -12 -54 -5l-10 -11l-22 -6q-48 -36 -97 -37l-32 -22
l-16 -32q10 -49 54 -75q77 -17 134 10q33 0 54 -16h75h16h27h16h22h16h108l21 27q51 -12 86 11v59l-27 27q-197 44 -166 242q34 9 43 38l5 21l11 22l5 16v16q12 30 16 54l11 16q8 27 16 43l5 10q8 56 33 97q-6 26 -16 43q18 23 37 27q12 71 43 118q-12 17 -16 33
q37 24 43 64q-19 26 -21 49q23 32 53 37q6 30 22 49l-5 48l-11 16l-6 16v16q-6 8 -5 17l-11 21l-5 11q-15 74 -43 123zM1143 1356q-48 -8 -70 33q71 1 96 21q56 -32 -26 -54zM1476 399q55 -11 43 -69q-113 20 -81 134q40 -21 38 -65z" />
    <glyph glyph-name="b" unicode="b" horiz-adv-x="1973" 
d="M133 1674q72 -9 116 -48q11 -82 6 -132l26 -11v-16q9 -22 6 -42q-11 -20 -32 -27v-201q21 -10 26 -32q14 -52 -26 -69v-673q42 -19 53 -53q-24 -18 -21 -48q-45 -12 -43 -64l-21 -5l-16 -11l-11 -5h-15q-46 -27 -80 -37v-74q99 -58 148 5q36 -8 48 -37h27h21h90h58h22h90
h16h63q24 27 53 27l16 -6q23 -20 43 -21l37 32q3 45 10 74v90v58v22v90v16v63q-26 5 -42 16q8 43 42 59v21v21v90v16v64q-25 9 -37 31l16 69l21 11v26v22v95v21v21v22v90v16v63q-34 19 -42 53q13 40 42 53v22v26v21v27v69v21v90v16v63q-35 9 -58 27h-74h-16h-27h-16h-21h-16
h-106q0 -42 -37 -53q-28 28 -37 53h-16h-95h-16h-165q-75 -61 -10 -127zM971 1674q264 44 323 -180q6 -15 5 -27q60 -14 38 -69q25 -52 -27 -53q33 -270 -212 -297v-127q281 -70 207 -376v-43q2 -62 -6 -106q33 -17 16 -48q17 -12 16 -31q-30 -27 -63 -16
q-123 -107 -271 -85q-7 -19 -26 -21v-80q20 -8 31 -21h16h27h16h21h16h106q27 15 48 21l31 -16q44 -2 75 6h16h16q70 24 127 21q9 32 21 53l27 -11q24 41 53 0l10 11l64 26q28 20 53 27l5 16q28 27 53 37q12 31 32 48q-14 49 0 84q26 8 42 22q52 371 -281 487
q-26 -22 -53 -21q-36 13 -32 42l-84 16l-6 32h16l43 16h16l15 11h16l16 10l11 6h16q43 26 74 37l64 37q-16 30 0 53q33 20 58 -5q121 138 95 302q-25 -7 -31 21q-22 -11 -37 0q-15 47 31 74l-16 37q-32 17 -42 43q-26 16 -42 31q-57 25 -91 59h-15l-16 5l-69 27
q-26 -26 -59 -27q-27 23 -37 48q-13 1 -21 5h-26l-22 5h-16l-42 11h-90h-58h-22h-90h-16h-63v-127zM1570 1467q-24 -6 -27 21q22 22 32 48q56 -34 -5 -69zM515 1281q-47 17 0 75q50 -29 0 -75zM1692 677q-14 -25 -37 -10q0 38 16 63q37 -16 21 -53zM541 640q-40 -13 -53 27
q-26 26 -11 53q49 -33 64 -80zM1411 566l10 26q50 -34 -10 -26z" />
    <glyph glyph-name="c" unicode="c" horiz-adv-x="1820" 
d="M867 1788l-10 -6q-51 -6 -85 -21h-16q-58 -25 -101 -32l-10 -10h-16l-11 -11l-16 -5l-21 -5l-16 -11l-16 -11l-21 -5l-10 -10l-16 -6l-11 -10l-16 -6q-44 -35 -79 -53q5 -41 -22 -68q-19 8 -31 21q-311 -354 -217 -800q21 22 47 10q11 -49 -26 -79v-21l16 -37l10 -37
l16 -38q16 -26 21 -47l11 -16l10 -11l6 -16l10 -10l6 -16q6 -5 5 -11q24 -19 32 -42l21 -21q30 6 53 0q5 -25 -16 -37q167 -142 371 -186q53 14 90 16q8 -16 10 -32q93 -12 165 11v16v95q-180 -15 -292 101l-16 63v27v21v95v22v21v21v90v16v64q-26 5 -42 21q16 31 42 42v90
q-41 0 -47 37q9 11 21 16q-16 39 26 32v21v21v21v91v15v64l-37 74q11 32 37 43q-5 126 32 222q116 87 244 85q10 19 32 26v16v64q-37 -7 -53 21h-48q-8 -6 -16 -5zM1100 1650q122 -26 202 -90q67 -6 111 -48l-16 -26q125 -145 154 -313q196 -140 174 180q-28 14 -31 43
q2 34 31 42v42v16v69q-21 21 -26 48q12 12 26 16q15 96 -31 159q-113 4 -165 -80q-88 -3 -153 21q-17 -11 -32 -15q-15 8 -32 5q-6 16 -5 32h-16l-37 16l-16 5h-16q-73 20 -122 21v-143zM359 1147q-14 -11 -27 0l-16 -16q-32 5 -16 32q28 0 43 15q32 -5 16 -31zM390 596
q15 31 37 47q103 -77 -37 -47zM1566 564q-38 -92 -95 -148l11 -32q-39 -35 -85 -37q-65 -57 -138 -74q-5 -27 -21 -53q-30 10 -42 31l-90 -10v-138h15h22q43 11 74 11l16 5l95 21l11 27l31 -11q6 6 11 5l11 6l10 5l11 5l16 5l31 22l32 16l16 10q23 27 48 37q48 59 85 90
q-12 17 -16 32q90 52 95 143q-11 82 -106 74q-32 -20 -48 -42z" />
    <glyph glyph-name="d" unicode="d" horiz-adv-x="1973" 
d="M97 1724q23 -21 37 -43q75 -14 124 -59v-235l26 -11q-1 -25 -5 -43l-21 -5v-166q23 -19 21 -43q-9 -11 -21 -16v-257l32 -21q-13 -30 -32 -43v-198q20 -4 26 -21q-5 -23 -26 -27v-134l-6 -118l-5 -10l-11 -11l-37 -16h-16q-45 -29 -81 -38v-75q102 -54 193 -10l21 -22
q-7 25 16 32q16 -15 11 -32h27h16h21h22h21h22h90h17h64q9 27 32 27l11 -5q12 9 26 10q7 -16 6 -32h16h16h107v27v70v21v91v16v64q-48 -18 -38 32q8 37 38 33v21v91v59v21v91v16v64q-45 9 -22 49q-9 8 -10 21q30 10 32 37v22v16v27v16v21v16v107q-36 10 -48 38q22 16 48 10
v16v16v107q-22 -11 -38 0q8 35 38 17v21v91v59v21v91v16v64q-24 8 -38 27q11 25 38 16v43h-22h-16h-96h-70h-21h-91h-16h-64q3 -47 -38 -27q-5 -9 -10 -10q-54 -6 -38 37h-53h-22h-21h-16h-22h-96q-37 -35 -48 -80zM1001 1681q138 -4 241 -59q64 -163 43 -321q28 9 37 -16
q-19 -27 -37 -43v-209q31 8 37 -21q29 25 43 -5q-32 -35 -80 -27v-385q28 -2 32 -27q-11 -42 -27 -70v-48q-6 -20 -5 -43l-16 -85q-122 -104 -268 -86v-134h16q41 -2 70 6h21h22q27 6 48 5q54 21 101 16l16 11l17 5l16 5l10 11h16l11 11l37 16q31 19 54 27q15 39 32 64
q24 -8 38 -21q5 9 10 10q39 36 70 54l16 16q5 9 11 10l48 49l10 16l54 64q-12 26 -11 48q21 11 43 5l5 11l32 70l6 16l5 10l5 17l6 10l11 43l10 43l11 37q-30 8 -27 38q32 37 43 75q-26 9 -27 32l27 16q-16 342 -198 583q0 -28 -27 -37q-25 41 -5 80l-16 11l-11 16l-16 5
l-64 59q-53 23 -86 48q-32 -17 -48 11l-37 -6q-9 17 -11 32q-27 7 -43 17l-85 16l-16 5h-16q-22 8 -43 5l-11 6h-43q-63 9 -107 5v-123zM600 1531q-2 -137 -91 -27q27 13 43 -10l21 48zM1606 787q-43 17 -11 54q43 -16 11 -54zM1579 723q-1 30 11 54q76 -62 -11 -54z
M493 707q33 -6 16 -32q-34 3 -59 27q-5 28 5 48q29 -15 38 -43z" />
    <glyph glyph-name="e" unicode="e" horiz-adv-x="1852" 
d="M92 1719l21 -27q28 16 49 21q13 -24 10 -48q52 -17 80 -48q-5 -53 33 -80q-8 -34 -33 -48v-284q25 5 38 -10q6 -49 -38 -43v-337q25 1 43 -16q-9 -16 -21 -21v-49l-22 -21v-182l22 -11q-8 -48 -22 -80q23 -5 27 -26l-27 -22q3 -71 -5 -118q-33 -24 -48 -53
q-106 21 -102 -80q29 -23 48 -32q33 -2 59 -11h16h22h16h27h16h21h16h107q-19 31 16 37q55 2 53 -37h75h16h27h16h22h16h107q7 43 42 21q6 10 11 11v27v75v26v22v96v21v22v21v91v16v64q-21 -4 -32 11q4 19 16 32q-19 31 16 38v21v59v27v16v21v16v107q6 93 -32 160q6 26 5 49
l27 37v27v21v91v59v21v91v16v64q-20 11 -27 33l27 21q-23 -6 -37 5l10 38q12 12 27 16v96h-91h-59h-21h-91h-16h-64q-15 -32 -48 -37q-33 10 -43 37h-22h-58h-27h-16h-22h-16h-107q-41 -37 -53 -80zM1001 1671h16h43l16 -6h16h16l112 -21q31 -15 59 -21q25 26 38 -6
q30 11 53 -5q14 -24 11 -48q88 -56 128 -134q62 -11 64 -59l22 -11q-10 -25 -32 -26l10 -22q74 -45 139 0v16q7 21 6 43v22v16v21v96q-36 -6 -38 32q17 16 38 11v54v21v21v16v22v96h-43h-107q-16 -35 -48 -53q-34 20 -43 53h-16h-27h-16h-21h-16h-107q7 -26 -22 -32l-16 11
q-13 10 -21 21h-21h-22h-91h-16h-64v-128zM1290 1270q-46 -173 -198 -225q4 -25 -5 -43q-31 1 -54 16v-117q116 -17 187 -91q18 24 43 10q-7 -23 -27 -26l6 -11l10 -16q29 -45 32 -91q24 -20 33 -43h16q49 -11 85 -5q13 31 27 48v27v165v75v16v27v16v22v16v107
q-18 -25 -43 -11q13 41 43 64v59q-49 46 -107 48q-27 -25 -48 -37zM1306 965q-77 13 5 48q56 -31 -5 -48zM1584 590q-41 -99 -96 -155q8 -40 0 -64q-58 -39 -32 21q-204 -186 -455 -171v-128h59h27h16h21h16h107q-2 30 5 53h16l38 -5q20 -22 27 -48h21h27h21h27h21h27h69h22
h91h16h64q-2 40 -27 64q5 31 27 43v21v16v22v96q-26 16 -37 37q11 37 37 59v16v38l-5 96q-62 29 -118 27q-18 -25 -32 -38z" />
    <glyph glyph-name="f" unicode="f" horiz-adv-x="1808" 
d="M136 1677q59 -5 101 -37q17 12 32 16l27 -21q-10 -33 -38 -37v-192q39 -9 43 -43q-21 -21 -43 -26v-443q19 32 43 43q18 -42 21 -75q-36 -11 -64 -10v-394q38 -1 48 -38q-25 -18 -48 -26v-16q-2 -62 -10 -107l-11 -11h-16l-16 -10l-16 -6l-85 -37v-74q136 -71 192 5h37
l21 -37h22h58h27h16h21h16h107q-7 31 21 37q30 -14 37 -37h59h21h16h27h16h21h16h107q5 6 10 5l11 5l59 38q-5 48 -22 80q-97 9 -165 58q-7 43 -5 75v16v26v16v22v16v106q-47 1 -59 43q17 45 59 42v16v16v165v75v43q-39 32 -11 74q-17 17 -16 38l27 21q8 95 -11 170l-5 27
l16 21v27v32v21v96v59v21v21v22v21v90v16v64q-119 17 -171 -42q-55 -8 -69 42h-27h-165h-74h-16h-27h-16h-21h-16h-107q-67 -64 -5 -128zM999 1784l11 -11q-27 -51 -22 -106h91q-7 26 21 32q8 -20 11 -37q121 -7 207 -54q30 19 59 16q19 -36 21 -69q121 -96 160 -224
q20 -11 32 -26q67 -17 117 16l11 16v53v21v21v16v22v96l-21 10q5 34 -6 59l27 11v16v21v16v106h-21h-22h-16h-21h-96l6 -21l-27 -11q-7 17 -5 32l-27 -10h-16l-11 10h-16h-16h-26h-16h-22h-16h-106q-17 -32 -48 -16q-9 -9 -21 -10l-11 26h-21h-16h-107q-9 -16 -21 -21z
M1643 1464q-57 5 -37 59q58 -5 37 -59zM631 1486v-16q0 -27 -5 -43q-1 -50 -11 -85l16 -37l-37 -27q-49 28 -11 91q-40 38 6 58q1 41 16 69zM1340 1315q-20 -22 -43 -32q-72 -252 -314 -234v-149q122 7 213 -54q27 16 48 22l32 -43q-7 -23 -27 -26v-16q32 -49 38 -96
q30 -24 42 -54h43h37q28 27 43 54v16v26v16v22v16v106v21v22v58v22v16v53q5 127 -11 208l-59 26h-5h5h-10h5h-11h6h-11h5h-10h5h-11h6h-11h5h-10h5h-5zM519 660q-26 -100 -69 -16q28 9 43 27zM743 346q-34 -50 -26 10z" />
    <glyph glyph-name="g" unicode="g" horiz-adv-x="1920" 
d="M815 1792q-31 -15 -59 -16q-8 -6 -16 -6q-59 -28 -102 -37q0 -27 -11 -43q-24 7 -37 21q-16 -23 -21 -42l-33 16q-31 -25 -58 -32q-45 -41 -81 -59l-10 -16l-16 -6q-18 -25 -38 -37l-16 -16q-5 -10 -11 -11q-5 -9 -10 -11q-11 -21 -27 -32q-20 -41 -43 -64q36 7 38 -27
q-32 -45 -81 -53l-5 -16l-43 -134q31 -26 32 -64q-26 -12 -48 -6v-16q-12 -50 -11 -85l-5 -16v-91q13 -53 11 -91q15 -43 16 -75l10 -38q30 -13 43 -37l-10 -22q14 -33 5 -58q148 -299 428 -412q34 14 59 -11l27 5l16 -27l21 -5h21l17 -5l42 -11h22q50 -12 85 -11v43v16v70
q-137 -13 -219 80l-5 75v27v91v21v27v69v22v91v16v64q-31 5 -54 16q10 26 32 27q-22 41 22 37v22v26v22v27v21v27v69v22v91v16v64q-31 21 -38 48q10 33 38 43v37v43v16q3 73 21 123q107 78 230 75v16v16v16v70h-107zM1072 1669q153 -7 267 -81l21 -5q10 36 43 16
q13 -35 11 -64q137 -131 177 -295q29 -41 42 -69q172 -41 145 171q-42 -9 -38 59q22 11 38 0v91v16v64q-26 9 -27 32v32q50 72 5 150q-126 7 -198 -80h-16l-91 27l-80 27l-69 5l-16 5l-22 11h-21h-16l-16 5h-16h-16l-107 11v-128zM440 1000q-1 -29 -16 -48q19 -8 21 -27
q-77 -33 -48 32q-40 24 -26 59q40 -4 69 -16zM981 866q18 -13 26 -32q172 6 161 -139q56 19 27 -81l-27 -10v-27q18 2 32 -5q1 -38 -27 -54q41 -220 -134 -289v-134h43l107 11q33 10 59 11l22 5l21 5q33 9 59 11q35 19 69 22q74 33 123 48v26q-33 22 0 43q-21 38 -10 70
q36 -18 37 -54q34 -7 48 -37q80 28 129 69v27v32v27v16v27v59v59v53q0 54 -6 91l6 48l5 27q98 51 70 150q-30 6 -54 16h-27h-16h-21h-16h-107q-12 -31 -38 -43q-28 15 -21 43h-16h-21h-97l-16 -22h-21l-16 -10q-23 13 -32 32h-59h-27h-16h-21h-17h-107q-63 -33 -74 -91z
M1724 647q-24 -1 -37 21q-1 30 11 53q49 -28 26 -74z" />
    <glyph glyph-name="h" unicode="h" horiz-adv-x="2292" 
d="M102 1713q26 -20 43 -38l38 -5q44 32 75 -16l-6 -22q12 -31 11 -59v-199q37 5 32 -37l27 -11q-9 -58 -59 -70v-306q50 21 59 -21q-34 -34 -59 -49v-161q21 -4 27 -21v-38l-27 -11v-332q-5 -26 -5 -43l-22 -27q-121 -10 -129 -118q116 -70 199 0q32 -5 59 10
q35 -10 16 -43h22h16h107h22h16h96h70h22h91h16h64l38 6q26 16 48 21q-5 125 -128 124l-17 32v166v76v16v27v16v21v16v108q-34 39 -64 59q10 34 43 16q9 17 21 21v22v27v69v22v91v16v65v91v16v65q-47 2 -48 48q25 17 48 21v54v43v16v16v16v17v37l6 59q69 46 134 54v16
q12 30 11 64q-22 9 -38 27q-55 -22 -102 -21q-24 9 -16 32h-27h-16h-21h-22h-21h-22h-91h-16h-65q-7 -35 -37 -43q-25 20 -32 43h-22h-27h-70h-21h-91h-16h-65q-67 -29 -75 -91zM1289 1713l16 -11l10 -16l11 -6q68 -14 113 -48q-7 -75 27 -96l5 -33q-2 -32 -27 -48v-424h-16
h-107q18 -45 -32 -49q-15 25 -17 49h-21h-21h-22h-91h-16h-65v-16q-2 -50 6 -86q53 8 80 -27h27h16h97h16h166v-414q26 -5 38 -26q-11 -45 -11 -76q-8 -19 -27 -21l-5 -91l-22 -27q-107 -11 -128 -108q36 -23 59 -43h37h22h27h69h22h91h43h38h27h26h22h21h27h22h21h27h16
l38 -5h16h21h38q57 7 96 5q50 13 81 38q-19 118 -134 113l-16 21q-17 80 -6 145l-32 22q1 40 32 53v16v60v21v91v16v65q-17 20 -16 43q-31 -19 -37 16l10 5q12 56 43 86v92v59v21v91v16v65q-26 14 -37 32q8 41 37 59v22v16v37q3 72 -5 119q-18 -2 -32 5l5 32l22 11
q7 86 107 86q5 6 11 5q20 22 37 32q10 35 11 59l-64 38h-22h-59h-21h-17h-21h-97l-21 -16l-16 5q-11 -15 -22 -21h-37q-16 -13 -33 -6q-25 14 -10 38h-22h-16h-97h-69h-22h-91h-16h-65q-61 -31 -69 -91zM537 1493q20 -67 -43 -54v16q12 27 21 43q-14 32 0 59q50 -17 22 -64z
M1804 1165q4 30 22 54q74 -60 -22 -54zM736 467q-26 -17 -38 -43q-62 40 11 75q26 -9 27 -32zM1799 419q62 -86 -75 -11l10 32z" />
    <glyph glyph-name="i" unicode="i" horiz-adv-x="1096" 
d="M213 1664l42 -37v-223q38 -24 59 -53q-9 -67 -38 -16h-21v-436q27 -19 43 -43q-2 -20 -16 -31q-5 -49 -27 -80v-372l-5 -85l-11 -11l-10 -11l-11 -5l-32 -11l-85 -37v-74q30 -6 53 -21q55 -11 91 -11q19 33 47 42q27 -17 38 -42h16h16h164q23 27 54 32q237 -89 425 21
l-5 53l-22 11l-26 21q-67 12 -112 43l11 26q-6 38 -6 69v38v74v16v96v69v21v90v16v64q-43 9 -58 43q30 47 58 74v16v16v106q-5 27 -5 48l-32 11q5 20 22 26q-39 43 15 64v21v27v69v21v91v16v63q-49 -30 -42 38l21 10l21 -5q58 60 128 64l27 21v16v64l-75 21h-58h-22h-15h-27
h-16h-21h-16h-107q16 -58 -58 -53q-14 30 -16 53h-16h-16h-16h-69h-59h-21h-21h-21h-22h-90h-16h-64q-97 -113 75 -144zM425 1617q-4 -32 0 -59q-70 -15 -26 69zM425 447q-27 -174 -79 -10q27 10 42 0l11 21zM883 197q-47 9 -16 48q37 -15 16 -48z" />
    <glyph glyph-name="j" unicode="j" horiz-adv-x="1780" 
d="M763 1745q35 1 37 -32l-26 -11q74 -53 154 -58l10 -27l6 -48v-186q14 -41 16 -74l-16 -16v-361q25 -14 32 -32q-13 -37 -32 -59v-308q29 -51 26 -101v-16q-23 -36 -21 -74q-81 -100 -191 -112v-128h37q38 0 64 -5h16l42 5h16h16h16h16q20 8 42 6q31 13 64 10l21 6
q72 27 117 37q7 44 48 48l6 16l16 -6q25 5 42 0q5 10 11 11l10 5l11 11q23 16 37 32l16 5q33 41 59 64q81 218 32 414v70q-13 4 -22 16l6 10q5 23 16 37v22q-2 30 15 42v16v21v91v16v63v16v165q-15 -4 -21 11q21 56 -10 106q12 18 31 11v16v42v21l11 91l11 5q39 17 69 21
l58 32q7 42 0 75l-42 21h-16h-16h-106q-12 -17 -27 -27l-21 11q4 -14 0 -21q-117 -3 -117 32q-15 -2 -27 5h-26h-70h-21h-95h-16h-16h-22h-16h-106q-34 -15 -58 -16l-43 16q-34 -24 -53 -53zM1082 1649l48 11l5 -16q-84 -38 -101 53q44 -8 48 -48zM1295 1341q-7 -79 -38 -32
q1 -57 11 -90q-55 12 -64 63q13 21 27 0v16v16q-3 37 0 64q41 -18 64 -37zM960 1336l5 15q24 -16 -5 -15zM375 767q4 -26 -6 -43q-33 8 -31 43q-243 -79 -245 -314l16 -37q17 -21 21 -43q10 -5 11 -10l5 -16q29 -25 43 -53q1 44 48 26q6 -39 -11 -64q193 -139 404 -148v16
v21v96q-83 9 -133 58q117 44 186 128q-17 46 -10 85l37 21v16l-27 106q-129 110 -276 117q-6 -40 -32 -5zM1103 448q-15 -4 -21 10q52 43 69 96q50 -62 -48 -106zM322 522q14 7 26 6q-38 -82 -48 10z" />
    <glyph glyph-name="k" unicode="k" horiz-adv-x="2200" 
d="M87 1715q25 -18 38 -38q59 -10 96 -32q7 35 38 32l-5 -37v-103l-6 -16v-161q17 -10 27 -22q-1 -34 0 -59l-27 -21v-285q9 -20 11 -38q21 -20 27 -43q-15 -25 -38 -22v-59q5 -84 0 -134q25 -4 33 -22q-18 -21 -33 -32v-253q0 -38 -5 -64v-33l-22 -27q-111 -13 -134 -113
q38 -19 59 -37q52 20 86 27l6 -33h27h69h22h91h17h64q5 44 59 38q27 -9 22 -38h16h16h70q151 -19 269 43q-23 114 -134 113l-17 33v75v59v27v16v22v16v107q-18 -12 -37 -10q1 40 5 64l32 22v27v16v21v16v108q-19 12 -16 32q-21 -6 -21 16q8 17 21 11q-8 65 16 119v37v16v167
q-26 8 -43 27q10 32 43 32v22v16v21v97q-34 -12 -37 22q4 43 37 59v38l6 32l37 32q100 11 119 97l-49 38h-21q-31 7 -54 5h-75h-16h-76q-57 -27 -113 -16q-7 -22 -21 -32q-53 20 -81 48h-21h-22h-27h-70h-21h-92h-16h-64q-55 -32 -65 -86zM1367 1661q44 -25 87 -21
q5 -27 -11 -43q17 -42 16 -86l-11 -6q-46 -109 -129 -167q-22 -66 -48 -107q-21 -2 -33 11l-10 -17l-11 -16l-11 -10l-11 -17l-27 -16l-5 -11l-11 -16q-35 -40 -54 -70v-37q-23 -16 -32 -33l-27 17q-24 -43 -59 -65v-226l32 22q46 79 113 118q17 -31 22 -59l11 -16l5 -16
l38 -87q33 -10 53 -32q-7 -56 -5 -91l11 -16l5 -27l6 -16l26 -60q24 -37 27 -75q38 -54 38 -107q-106 -35 -113 -135q32 -11 48 -27q14 -1 22 -5l16 -6h75h17h27h16h21h16h108q-2 28 21 33q9 -6 11 -11l16 -5h54q19 -2 27 -17h108h32h21h22h21h17l118 6q19 28 43 37
q-38 107 -140 140q-9 36 -21 59l-11 17l-6 26l-10 11l-6 16q-6 6 -5 11l-11 11l-5 11l-11 32q-28 48 -38 86q-30 -3 -43 22q-7 22 11 37q-6 8 -5 16q-65 42 -92 97l11 27q-20 42 -16 86q-6 5 -5 11q-20 24 -27 48q-25 36 -33 70q-35 -9 -59 0q12 36 38 54q-20 22 -22 48
q-41 46 -48 97q-48 -11 -32 22q-15 -4 -22 0q-8 45 0 80q-17 24 -21 49q33 25 53 48l16 11l6 11l27 27l5 10l11 11q56 66 108 97q-36 66 37 65l-5 32q39 -5 27 -54l10 5q106 67 210 81q29 51 38 92q-32 30 -59 48h-16h-97h-70h-22h-91h-16h-65q-15 -27 -43 -22l-21 22h-22
h-21h-92h-16h-65q-120 -98 43 -140zM534 1489q-35 22 -33 59q43 -15 33 -59zM625 1145q-21 18 -27 43q-40 0 -38 32q74 -8 65 -75zM512 774v-60q4 -72 -5 -123q-24 23 -17 53q-47 33 0 60q-2 43 6 75zM1631 402q-32 38 -11 113q44 -44 11 -113zM684 343q-3 21 6 38
q53 -35 -6 -38z" />
    <glyph glyph-name="l" unicode="l" horiz-adv-x="1764" 
d="M94 1710q26 -19 43 -37q63 -10 106 -43l6 -26v-203q-2 -70 10 -118q31 16 27 -26q-12 -15 -27 -22v-42q-5 -6 -10 -6v-128q22 -12 21 -37l-21 -32v-192q24 3 21 -22q21 32 27 -5q7 -146 -48 -85v-305q2 -62 -6 -106l-37 -32q-110 -7 -107 -107q44 -29 86 -32h32h37h32h27
h32h21h96h59h21h22h21h21h91h16h64q28 29 53 37v54v21v21v16v22v96q-17 17 -16 37q-13 5 -21 16l16 6q-14 51 21 53v27v21v96v21v22v21v91v16v64q-34 18 -37 53q10 16 21 21q2 25 16 38v165v75v16v27v16v21v16v107q-37 13 -42 42q60 73 48 161q62 52 133 48q19 19 38 21
q12 43 10 75q-39 21 -69 32l-75 5h-59h-21h-91h-16h-64q-7 -22 -26 -27q-30 4 -38 27h-90h-22h-26h-70h-21h-91h-16h-64q-59 -30 -64 -91zM473 1593q42 -51 -27 0q0 39 6 64q45 -22 21 -64zM1503 499q-33 -8 -59 5q-102 -192 -293 -240q2 -38 -27 -48q-36 0 -27 32h-21
q-48 -9 -91 -5v-139h59h21h22h21h21h91h43h37q-10 21 -5 37q34 -4 42 -37h54h21h59h16h21q40 1 64 5l54 6q16 27 37 42v16v16v107q-34 6 -43 32q15 40 43 64v75v16v16v16v21v16v16v54l-5 48q-53 22 -96 26q-107 -87 -59 -197zM473 451q8 -44 -27 -43l6 11q-4 64 10 112
q59 -35 11 -80zM1407 285q-39 24 0 54q40 -31 0 -54z" />
    <glyph glyph-name="m" unicode="m" horiz-adv-x="2441" 
d="M92 1704q29 -19 43 -42h37q56 -22 106 -16q13 -18 -5 -32l16 -5l11 -6q29 -13 48 -26q-5 -20 -22 -22v-37q27 -34 32 -69l11 -16l21 -32l27 -75q48 -60 64 -122q30 4 48 -21q-5 -17 0 -32l-11 -22q21 -31 27 -58l16 -22l5 -21l5 -16l11 -16l5 -11l16 -16v-16
q25 -39 32 -74q28 -31 38 -64q30 -10 48 -27q0 -31 -11 -58q9 -14 11 -27q13 -10 21 -21v-16l16 -37l16 -16l5 -22q9 -7 11 -16l10 -16l11 -16v-16l11 -16l16 -37q30 -37 42 -69l6 -27l10 -16q11 -17 16 -32q25 -34 32 -69q33 -42 38 -80q31 -41 42 -85q51 3 85 11l11 32
l11 32l10 32l43 101l5 26l11 16l5 22l6 16l16 42l16 37l42 118l16 37l6 21l5 16l11 11l5 16v16q24 51 32 90l21 32l5 38l22 32l10 32l11 31l11 27l10 27l6 10l10 38q16 61 38 96l5 21l11 21l10 21v16l11 22l16 53l5 11l6 16l16 37l5 11q10 40 27 63v-426l37 -10q2 41 37 32
q-5 -12 -16 -16q12 -90 -37 -59q-9 -7 -21 -5v-256q26 -16 32 -42l-22 -6q-25 -132 22 -239q-48 -15 -32 -123q-75 -71 -171 -75q-17 -41 -21 -74l10 -5q40 -32 75 -43q27 0 43 5q23 26 53 27q20 -12 27 -32h69h21h96h59h21h21h21h22h90h16h64q25 33 59 21v-21
q120 -19 165 75q-51 71 -133 74l-21 21q-6 31 -6 54v69v21v22v21v90v16v64q-15 -10 -42 32q18 24 42 38v21v21v91v16v64v74v16v21v16l-5 107q-33 -1 -43 32q12 11 27 5q5 12 16 16l5 69v22v96v21v21v21v91v16v64q57 52 123 59l26 21q6 56 -21 96h-16q-20 6 -43 5
q-20 -32 -53 -21q-18 -22 -42 -22q-6 26 5 43h-16h-16h-27h-16h-21h-16h-107q-13 -28 -42 -37q-32 13 -48 32h-16q-22 7 -43 5h-21h-91h-16h-63q-3 -20 -16 -32q-14 -64 -43 -106q21 -37 0 -70l-27 -10l-10 -27l-6 -16l-37 -80l-5 -16l-11 -16l-5 -37l-11 -21l-5 -16
l-38 -86q13 -41 6 -74q-11 -25 -38 -16l-5 -11q-14 -46 -32 -74q-17 -73 -48 -118q-8 -49 -32 -79l-37 16q-46 154 -138 245v16l10 10v16q-6 5 -5 11l-21 32v16q-30 40 -38 80q-31 2 -58 16q-1 34 16 64q-19 23 -11 47q-22 21 -21 48l-22 38l-5 16l-5 10l-6 16
q-20 37 -26 64q-30 -2 -54 11q23 75 -10 133h-16h-21h-91h-16h-64q-12 -29 -43 -27h-32l-10 27h-16h-21h-96q-10 -21 -32 -27q-9 13 -11 27h-16h-16h-27h-16h-21h-16h-106q-37 -41 -43 -91zM625 1625q-27 -45 -32 5zM1749 1550q9 17 21 27q69 -61 -21 -27zM2154 1497v-69
q-57 -30 -32 10q-33 36 0 69zM721 1374q8 -25 -16 -32q-17 20 -16 43q19 5 32 11q21 -13 0 -22zM326 698q22 -7 27 -27l27 -5q-9 -19 -27 -21q4 -15 0 -22l-27 -53v-43q9 -102 -16 -181q-79 -101 -181 -143q-23 -36 -26 -70q97 -56 197 -26q1 13 5 21h27q17 -14 26 -32h27
h59h21h16h16h16h16h16h16h21h16l107 11l21 37q-28 110 -144 122l-11 22q-23 -18 -48 -16l-5 37l5 32q-35 65 -26 133q-25 42 0 75q-18 -6 -27 10l22 11v16q6 20 5 43v16v69v42q-31 5 -37 32q40 27 37 75q-12 12 -16 27l-16 21l-5 27q-21 32 -27 58l-5 11l-38 64v32
q-6 5 -5 10l-11 6l-48 101v-522zM816 906q-28 32 0 74q34 -36 0 -74zM1935 506q74 -32 5 -32l-10 27zM950 346l16 32q29 -31 -16 -32z" />
    <glyph glyph-name="n" unicode="n" horiz-adv-x="2125" 
d="M96 1691l49 -27q93 -16 150 -75q31 4 53 -5q53 -43 0 -65l6 -26l16 -11l16 -16l10 -16l11 -16l16 -22l27 -48l16 -16l11 -22q9 -5 10 -10q10 -6 11 -11l11 -11l5 -16l11 -11l5 -16q28 -29 43 -53q49 11 81 -38q4 -33 -22 -43q10 -5 11 -10q18 -29 37 -49l6 -16l43 -48
l10 -16l6 -11l10 -10l16 -38q37 -35 54 -70q38 7 64 -5q12 -45 -5 -75l21 -21l16 -27l17 -22l37 -53q24 -21 32 -49l22 -16q17 -22 21 -42q21 -20 32 -38l6 -11l21 -32q9 -5 11 -11l10 -10l6 -16l11 -6l58 -86q40 1 70 -16q15 -35 -11 -53q6 -8 6 -16q31 -32 43 -65
q39 -41 53 -80h43h38q27 54 101 0h22h16h27h16h21h16h107l22 27v59v16v16v70q-15 26 -16 48q2 28 16 48q-61 52 -86 118q-34 26 -48 59q-32 4 -38 32q-14 -22 -37 -16q-32 53 -11 102q-9 5 -11 11l-10 10l-6 16q-6 6 -5 11l-11 5q-25 51 -48 81l-16 16l-11 11q-42 45 -59 91
q-41 30 -53 75l-11 5l-21 32q-44 36 -65 81q-29 -14 -48 5l5 27q-21 25 -5 48q-49 42 -70 91l-10 6l-11 10l-59 91l-32 16q-20 -11 -38 0q-13 42 0 81l-16 16l-16 21l-16 22l-16 21l-11 27q-43 44 -59 91q-54 46 -75 102h-26q0 -44 -54 -43q-37 14 -32 43h-21h-27h-22h-26
h-70h-22h-91h-16h-64q-10 -37 -43 -38q-34 9 -16 38h-96q-50 -48 -49 -107zM1409 1702l11 -6l16 -11l11 -10q56 -19 91 -49l37 17q14 -27 27 -43l-11 -32q35 -41 38 -86v-274q23 -19 27 -42q1 -35 -27 -43v-284l16 -6q39 -76 102 -107q1 -27 5 -43l43 11v21v27v70v21v91v16
v65q-25 32 -27 64q12 12 27 16v75v59v27v16v21v17v107q-27 48 -32 86l43 21q81 140 219 177l11 64q-30 18 -48 43h-16h-16h-16h-70h-22h-21h-21h-91h-17h-64q-5 -31 -32 -38q-28 13 -32 38h-43h-16h-70q-40 -47 -32 -96zM1806 1691q-13 -39 -49 -22q-3 21 11 33zM771 1562
q29 -51 -21 -37q-87 3 -16 37q6 42 27 75q46 -26 10 -75zM316 930q13 -12 16 -27q20 -8 32 -21q-9 -20 -32 -22q-5 -26 -16 -43v-241l27 -27l5 -59q-16 -6 -32 -5q4 -130 -86 -204q10 -25 0 -48q-36 -15 -69 -5q-30 -22 -59 -27q-10 -43 0 -81q41 -4 69 -21h54h21h22h16h21
h97q-7 26 21 32q27 -14 43 -32q139 -13 247 27l10 59q-9 5 -10 10q-24 17 -38 33q-113 36 -166 128q-21 -5 -38 6q-1 34 16 59l-5 16v16v91q7 80 -11 139q2 58 -16 102l6 16l21 5v92v59v21v91v16v64q-33 33 -48 59q-34 -11 -59 11q-3 19 -16 32q6 22 16 38l-21 32
q-25 19 -38 38v-429zM1152 726q17 12 32 16q18 -41 -21 -27q-26 -19 -49 -5q-11 28 0 54q30 -12 38 -38z" />
    <glyph glyph-name="o" unicode="o" horiz-adv-x="2038" 
d="M830 1781l-85 -16l-21 -5q-8 -6 -16 -5q-30 -15 -53 -16l-11 -11l-16 -5h-16q-5 -6 -10 -6q-45 -27 -80 -37q4 -43 -32 -63q-38 -10 -68 0l-11 -11l-11 -11l-16 -5q-5 -9 -10 -10q-34 -39 -64 -59v-16l-5 -31q-21 -33 -21 -64q-35 -15 -43 21l-10 -16l-6 -21l-10 -16
l-6 -11l-10 -10l-48 -117q14 -36 16 -63q-15 -22 -37 -16l-5 -27v-32l-6 -10v-16q-20 -113 -5 -191q-1 -168 85 -260l5 -27l32 -10q2 -44 -21 -74l10 -11l16 -37l16 -16l5 -16q21 -19 32 -37l6 -11l10 -5l11 -16l26 -32q37 -25 59 -53q59 -10 95 -26q11 -21 0 -37l37 -16
l16 -6l80 -37h16l37 -10l16 -11l21 -5h21l42 -11l16 -5l38 -5l116 -11v16v106q-110 -13 -191 48q-31 -20 -58 0l16 37l-5 16v16v16l-11 42v90v16v64q-38 17 -27 58l-37 11q21 41 64 42v27v58v21v21v22v21v90v16v63q-28 36 -32 75q21 18 27 42q10 72 5 117q-16 5 -27 16v47
q21 23 27 48v37q-8 117 21 207q108 74 228 69v16v106h-69q-31 -12 -58 -16zM1079 1675q46 2 80 -5q5 23 26 26q35 -10 32 -42q108 -31 117 -133q29 -4 53 -21v-64q-26 -23 -53 -16v-90q28 -5 42 -16v-26q-19 -21 -42 -27v-344q33 -24 37 -59q-2 -30 -27 -37l-10 -48l5 -291
q31 -24 42 -53v-43q-30 -11 -53 -10q-30 -181 -249 -154v-122q318 11 541 186q-5 34 11 58h16q30 16 58 21q243 272 228 599q-32 11 -53 32q2 20 16 32q-16 46 26 42v16q-6 6 -5 11v16q-6 8 -5 16l-11 42l-5 16l-21 64q-29 -15 -53 0q-4 48 21 79q-127 240 -329 361
q-36 -6 -58 -16q-17 28 -22 53l-15 5l-53 16l-16 6l-22 5l-15 5l-22 5l-16 6h-26l-16 5h-21l-133 16v-122zM459 1267q-4 -38 -32 -53q-10 -77 -37 5l10 5q13 32 32 53zM1625 1182q-57 17 11 58q52 -28 -11 -58zM416 1161q-34 -50 -26 10zM220 885q26 -79 -37 -27l11 37z
M1567 652q-42 19 -21 58q43 -18 21 -58zM1668 530q4 28 21 53q73 -61 -21 -53zM1604 323q-34 8 -16 37q35 -8 16 -37z" />
    <glyph glyph-name="p" unicode="p" horiz-adv-x="2039" 
d="M105 1716l48 -43q78 -13 114 -75l37 -11q2 -57 -37 -86v-296q33 18 43 -17v-32l-38 -16l5 -38l-10 -5v-124q36 5 32 -32q1 -44 -32 -59v-372q31 -41 32 -81q-6 -37 -32 -54v-16l-6 -86l-5 -11l-11 -10h-16l-11 -11h-16l-11 -11q-52 -17 -81 -32v-70q87 -39 173 -33
q15 48 64 60q28 -25 22 -60h32h70h22h91h16h65h59h27h70h22h91h16h65q5 7 11 6l64 43q-10 116 -140 70q-25 19 -21 48l-16 16q-26 -7 -33 22q-27 -12 -43 0q21 43 65 43v16v27v16v22v16v108q-39 -8 -54 70q52 96 54 188v54v22v21v16v22v97q-29 20 -32 48l16 38q-29 1 -33 27
q27 10 49 0v59v22v21v22v21v92v16v65q-27 31 -27 64q6 23 27 27v22v91v16v65q-11 15 -16 27h-16q-15 14 -33 16h-21h-59h-27h-17h-21h-16h-108q-32 -30 -70 -38q-38 8 -48 38h-17h-96h-17h-167q-38 -38 -48 -81zM1037 1679l16 10q16 -9 21 -21h38h38h21l16 -6l76 -16
q16 33 43 16q15 -31 16 -59l27 -16q17 -129 11 -210q37 -18 43 -54q-46 -50 -43 -108q13 -151 -33 -269q-144 -84 -296 -59v-135h16h43l38 -5h43h54l86 16q14 24 38 32q34 -1 38 -32q238 26 403 162l6 59q17 7 32 5q12 40 54 43l5 11l6 11l11 32l5 11l21 59l6 11l5 54
q12 42 11 81v37l-11 60q-48 -3 -70 32q-2 52 27 86l-11 11l-59 86l-16 11l-22 5l-16 11l-5 11q-35 20 -54 43q-52 12 -86 37q-23 -28 -54 -27l-11 11l-37 54h-22l-21 5h-22h-27q-31 12 -59 11q-31 9 -54 11h-59h-22h-16h-27h-16h-22h-16h-107v-118zM1645 1485
q-43 -14 -70 27q-52 -3 -21 43q69 -15 91 -70zM633 1280q-8 43 5 75q146 -120 -5 -75zM1467 1054q18 25 43 11q-9 -55 -64 -54q-26 31 -11 64q20 -8 32 -21zM568 537q-5 -49 -48 -27v16q15 38 21 65q110 -63 27 -54z" />
    <glyph glyph-name="q" unicode="q" horiz-adv-x="2010" 
d="M795 1792h-16l-22 -5l-16 -11h-16q-57 -25 -96 -32q-2 -35 -22 -54q-20 -9 -37 -5q0 -28 -11 -48q-29 8 -27 37l-43 6l-11 -11l-16 -5l-10 -11l-17 -11l-16 -5q-13 -18 -32 -27l-11 -11l-16 -5q-56 -68 -102 -102q7 -30 -10 -48q3 -17 0 -33q-25 -13 -49 -10l-5 -16
q-18 -23 -27 -38q-6 -28 -16 -43l-5 -16l-6 -16l-16 -43l-5 -27l-6 -37q-15 -50 -16 -86q44 -27 27 -75l-11 -6q-4 -44 -21 -75v-16q9 -50 5 -86l6 -21q13 -43 16 -75q14 -26 16 -43l5 -22l32 -91q16 33 43 16l-10 -32q23 -29 5 -59l11 -5l16 -38q27 -23 37 -48q21 3 38 0
q21 -30 16 -59q280 -228 606 -231v43v16v70q-130 -13 -220 64q-28 86 -21 166q-21 5 -27 22q37 82 27 155q-44 -2 -38 49v32l38 21v43v108q-31 21 -38 53q3 37 33 49l5 91v21v22v16v21v97q-25 11 -16 37l-22 16q4 49 33 81v16v16v16l5 16v16v17q3 57 11 96q107 90 230 86v16
v16v16v70h-16h-96zM1052 1690q185 16 231 -128q28 -11 43 -27v-16q14 -33 16 -59q-27 -10 -43 5v-27l-5 -16v-295q40 12 48 -27q-15 -35 -48 -32v-349q35 -16 48 -48q-8 -35 -37 -16l-11 -43v-172q-70 31 -134 32l-11 -26q-31 13 -48 -11q-32 -1 -43 21l-59 -32
q5 -42 21 -70q98 -9 167 -59q33 25 64 33q31 -46 0 -86q-25 4 -43 16q-86 -29 -156 -27v-123h17q20 7 42 5l108 11q42 21 80 21q84 -55 156 -70q21 35 59 33q17 -20 16 -43q230 -20 381 128q-15 43 -38 70q-161 -47 -300 6q5 8 11 10q18 26 32 38l16 5l5 11l27 27
q26 34 48 53q-18 29 0 54q26 31 59 27l6 11l5 10l22 27l16 38l16 37l11 11l16 59l5 11q22 64 27 112q-26 -7 -32 22q18 26 27 43q-33 11 -33 43l27 10q-7 53 22 86l-6 11q-29 260 -166 451h-16h-97q-13 34 22 48q-14 30 10 48q-270 234 -601 231v-113zM403 1331
q-45 -83 -32 16zM392 1283q-55 -104 -48 10q28 0 48 -10zM1562 1197q-120 -75 -37 32q31 -5 37 -32zM1578 837q18 2 33 -5q-11 -56 -43 -16q-54 12 -33 59q33 -10 43 -38zM478 730l-10 -32q-87 -20 -33 48q27 -5 43 -16z" />
    <glyph glyph-name="r" unicode="r" horiz-adv-x="2121" 
d="M101 1704l16 -10q46 -35 101 -43l32 -27q-7 -72 43 -101q-2 -42 -37 -58v-294l21 -37q29 -68 -21 -69v-59q21 -44 26 -80l-5 -10q-5 -38 -21 -64v-443q2 -81 -6 -133l-21 -21q-112 -8 -128 -107q36 -20 59 -37h21q41 28 80 32l16 -32h32h69h22h90h43h37h59h90h54h26h16
q59 -12 102 -6q75 14 128 48q-3 43 -16 75q-98 11 -166 64l-5 27v21v26v70v21v91v16v64q-7 6 -16 5q4 47 -16 80q11 26 32 37v16v22v16v106v27v26v22v96v21v21v22v90v16v64l-21 11l16 21q-23 2 -27 22q2 62 32 101v58v22v16v26v16v22v16v106q-17 -3 -32 0q2 28 5 43h-96
q-21 -33 -58 -32q-3 14 0 21q-26 -13 -38 11h-32h-21h-96h-58h-22h-21h-21h-22h-90h-16h-64q-69 -28 -75 -91zM981 1656q345 21 282 -341q28 -13 43 -32q-18 -71 -43 -58q4 -38 0 -64v-64l-5 -32q-127 -103 -277 -80v-133q152 11 256 -70v-16q24 -45 21 -90q19 -12 16 -32
q14 -2 21 -6q4 -58 -37 -64l16 -277q25 -31 37 -53q23 26 48 16q-16 -86 102 -139q403 -137 581 203q17 94 -80 74q-55 -19 -86 -58l-42 11l-11 5v96q-32 21 -37 58q2 95 37 64q18 198 -139 251l-5 16q-31 -20 -64 -16q-21 28 -16 59q-13 1 -21 5l-75 16l-10 5
q-82 3 -134 32q485 70 459 475q-33 -6 -43 21q-10 67 5 122q-23 19 -32 43q-35 19 -48 48q-50 19 -80 53q-46 8 -79 32q-48 -20 -91 -16q-18 28 -27 48h-16q-48 16 -90 11h-16q-21 6 -43 5h-27l-16 6l-74 5h-16h-22h-16h-106v-139zM384 1704l5 32q81 -28 -5 -32zM1482 1486
q11 -56 -27 -43q-21 28 -16 59zM789 862q-13 52 16 85q47 -57 -16 -85zM405 271l16 32q80 -113 -16 -32z" />
    <glyph glyph-name="s" unicode="s" horiz-adv-x="1681" 
d="M726 1796q-403 -38 -579 -350q39 -11 32 -59q-32 -4 -53 11l-11 -37q-19 -74 -16 -128l11 -10q7 -61 26 -106l64 -22q-1 -40 -16 -63q29 -21 43 -48q57 -34 85 -74l26 -6l48 -37l58 -32l27 -5l21 -16q43 -9 69 -27l16 -5h21l21 -11l11 -10q39 -5 64 -21q61 -13 101 -38
q32 20 58 22q33 -23 48 -43l10 -10l11 -11q90 -46 143 -106q60 -298 -223 -313q-21 -106 43 -112v-32q283 18 483 160l5 16q-11 20 -5 42q27 -2 47 0q6 3 11 0q45 43 69 74q-23 36 -32 69q37 22 43 -16l21 -5q154 370 -165 573q-17 -28 -42 -5q-5 -13 -16 -21q-4 34 11 58
l-22 16l-21 11l-90 32l-21 10l-11 6q-50 16 -79 37q-116 23 -192 69h-21q-1 -43 -42 -32q-34 30 -6 53q-134 41 -191 154q-43 113 27 196q-29 16 -5 37q42 10 69 -10q48 26 90 32v16v42q2 49 -5 85h-6h6h-11h5h-10h5h-11h6h-11h5h-10h5h-11h6h-11h5h-10h5h-11h6h-11h5h-10h5
h-10h5h-5zM922 1653q284 -61 393 -298q24 9 47 0q-36 -90 32 -143q67 4 117 27l5 16l6 15v16v96v16v164q-39 -1 -48 38q12 27 48 16q10 93 -32 159q-102 -1 -159 -69h-27l-16 5l-21 5l-16 11h-21l-16 5l-11 6l-48 10q-32 10 -53 21q-34 0 -58 6h-16l-11 5l-37 5q-34 1 -58 6
v-138zM1325 1573q4 -63 -32 -26q-46 -8 -63 26q35 -3 53 16q24 -6 42 -16zM434 1350q-26 -94 -48 -5l26 21zM726 957q-45 -7 -75 -26q-13 9 -16 21q-80 6 27 37q41 -13 64 -32zM105 681v-355q26 -14 37 -32q-39 -89 -16 -160q57 -19 101 -15q43 48 90 69q32 1 58 -6l43 -10
l10 -6l11 -5q40 -18 69 -21q124 -46 223 -43v22v15v107q-81 12 -138 47q-32 -7 -58 -5q-19 27 -27 53q-119 76 -175 191q-22 -3 -37 11q-11 -22 -32 -11q-5 58 37 59q-34 69 -42 122q-56 23 -107 21q-23 -32 -47 -48z" />
    <glyph glyph-name="t" unicode="t" horiz-adv-x="1943" 
d="M158 1766l-54 -21v-165q49 -12 48 -85q-25 -14 -48 -6l-5 -32v-79l5 -16l11 -123q102 -61 176 21q5 136 64 235q-22 42 0 80q30 3 42 -22q67 69 149 86q4 39 22 63v91h-70h-21h-96h-21h-21h-22h-90h-16h-64zM679 1639q25 -15 32 -38q-4 -29 -32 -32v-239q25 3 22 -22
q13 2 21 -5l-5 -37q-22 -10 -38 10v-729q26 1 22 -27q13 -1 21 -5q-7 -19 -27 -22q0 -27 -16 -42v-165q-83 -56 -170 -64q-10 -43 -11 -75l11 -21q44 -8 75 -21h16h21h16h26h16h22h16h106q16 27 38 42q36 -11 21 -42h21h21h27h69h22h90h16h64q8 20 21 32q118 -72 224 10
q-31 117 -149 101l-27 22q-22 52 -16 101q-27 15 -42 27q8 41 42 26v91v21v27v69v21v91v16v64q-23 27 -21 64q-32 -6 -32 26q15 1 27 -5q-2 33 26 53v37v70v21v91v15v64v91v21v27v69v21v91v16v64q-35 4 -42 37q50 34 42 96h-69h-21h-22h-16h-21h-96q-14 -23 -37 -27l-21 11
q-9 -18 -22 -27q-22 20 -21 43h-43h-15h-16h-166v-154zM1388 1708q28 -33 26 -69l22 -6q31 -10 53 -21q44 -19 69 -48q40 7 75 -11l-32 -64l10 -32q52 -99 54 -197q55 -45 117 -48l32 11q18 25 37 37v27v16v21v16v107v21q-32 12 -21 43q8 20 21 32v21v53v22v21v16v21v96h-32
h-21h-96h-59h-21h-21h-22h-21h-90h-16h-64v-85zM1347 1320q-32 -46 -36 12q20 -8 36 -12zM215 1272q-15 8 -8 24q17 12 32 16q22 -25 -24 -40zM671 1120v12q14 2 16 20q42 -41 -16 -32zM855 980q-3 -30 -28 -24l4 12l4 8q7 24 16 40q19 -15 4 -36zM763 296q-34 -38 -36 20
q19 -7 36 -20z" />
    <glyph glyph-name="u" unicode="u" horiz-adv-x="2090" 
d="M192 1657q86 -15 64 -123q33 1 38 -42q-15 -23 -38 -22v-491q45 -7 38 -70q-12 -28 -38 -32v-331q10 -32 11 -58q18 -50 21 -86q35 28 64 0q-5 -34 -32 -48q6 -8 6 -16l16 -5l5 -11q9 -5 11 -11l21 -26q31 -13 54 -32q40 37 64 -6l26 6q15 -24 11 -49l11 -5h16l10 -11
q14 -1 22 -5l16 -5l16 -6l85 -26l16 -6l16 -5h16l11 -5l16 -6h16l86 -10l10 -6h27h16l37 -5l118 5v22v16v21v96q-139 -1 -235 75l-5 11v16q-7 5 -6 10q-27 116 -16 198v37q-66 -7 -48 64l-16 6v16q49 14 64 53v22v58v27v16v21v16v107l-16 -5q-5 60 -32 96l27 11
q-16 34 21 26v16v16v166l-16 11v37l-27 5q9 42 6 75q22 6 37 -5q-8 50 0 91q-2 46 5 80l22 21q101 4 128 96l-64 43h-16h-16h-166q-9 -18 -21 -27l-37 11q-37 7 -59 16h-166h-75h-16h-26h-16h-22h-16h-107q-133 -79 27 -139zM1405 1684q79 -26 128 -75q25 26 53 27
q8 -19 16 -32q-12 -23 -32 -32q28 -46 38 -86v-432q36 -30 42 -64q-31 -25 -42 -49q105 -589 -369 -678v-155q566 84 529 625q-42 5 -27 64l22 6v16q7 21 5 42v22v58v27v16v22v16v106q-32 58 -32 113l32 5q-56 354 208 438q19 42 27 75q-134 83 -230 0h-37q-31 5 -27 37h-75
h-16h-26h-16h-22h-16h-107q-94 -52 -26 -112zM475 1598q11 20 32 27v32q79 -63 -32 -59zM636 958l-11 -27q28 -46 -32 -11v16l5 11v32zM1517 301l16 21q-10 31 16 53q50 -71 -32 -74z" />
    <glyph glyph-name="v" unicode="v" horiz-adv-x="2040" 
d="M91 1704q6 -8 5 -16l16 -6l11 -5l16 -5l16 -6l64 -37q4 -31 11 -54q34 -51 38 -101q28 -2 48 -6q12 -41 -16 -64l5 -11q20 -54 27 -91q14 -20 16 -42l11 -11l5 -22q13 -22 16 -42q33 -59 43 -113q34 -1 59 -21l-6 -16q7 -56 -5 -97l11 -16l21 -69l11 -16v-16q6 -6 5 -11
l16 -43v-16q44 -61 48 -123q35 -8 59 -27q7 -38 -16 -64l11 -11l5 -16l-5 -10l32 -86q15 7 27 5q8 -23 21 -37q0 -25 -21 -37l5 -22l11 -16v-16q37 -71 48 -128q51 5 54 -54l26 -16h22h21h27h70h21h91h16h64q4 29 22 54q3 51 -38 58q16 81 86 81q5 29 21 48v32l-11 32
q-28 46 -32 91l-10 21l-6 22l-26 64l-27 80l-11 27l-5 16l-11 21l-5 33q-7 5 -6 10q-29 60 -37 107q-28 42 -32 81q-30 1 -48 5q-12 47 21 69l-5 22q-36 68 -43 123q-9 9 -11 21q-25 51 -32 91q-9 28 -16 43l-5 11l-6 11l-37 112q-60 -11 -43 32l-16 5q8 30 37 16
q-20 123 97 145l21 27l-5 42l-16 38l-11 5l-75 11h-91h-32h-38h-69h-166h-75h-16h-27h-16h-21h-16h-107q-72 -28 -86 -96zM1381 1672q99 -33 139 -118l-11 -64q-18 -32 -21 -59l-5 -22l-6 -16l-5 -21l-11 -21q-8 -41 -21 -70l-27 -64q-7 -48 -27 -81q25 -37 6 -69
q-22 -9 -38 -27l-5 -32l-11 -27q-12 -32 -16 -59l-48 -117v-38l11 -21l10 -16l6 -38q6 -8 5 -16q6 -5 5 -10l43 -97l11 27l11 21l10 27q5 42 22 70l10 26l11 27l16 59l11 22l5 16l6 21l5 21l11 16v16l5 17l11 21l48 134q-15 49 -11 91l27 5q6 40 37 54q9 57 33 96
q30 175 160 262q-4 29 5 54q19 11 27 26q114 -69 134 59q-18 13 -27 32q-46 3 -75 11h-16h-96h-16h-166q7 -39 -21 -59q-45 14 -27 59h-16h-16h-16h-70q-133 -64 -16 -128zM466 1714q-85 1 -16 65q26 -28 16 -65zM856 810q15 -10 22 -21q-92 -49 -22 75q26 -24 0 -54z" />
    <glyph glyph-name="w" unicode="w" horiz-adv-x="2668" 
d="M66 1697q85 -69 148 -42l31 -26l-5 -16q-25 -1 -37 -21v-21q21 -23 27 -48q13 -32 15 -58l6 -10l21 -37v-16q25 -49 31 -90q28 -8 37 16l16 -5q-3 -53 -21 -95q29 -46 37 -90q8 -14 11 -26l21 -69l10 -21q19 -33 27 -58l16 -58q16 -29 21 -58l10 -16q13 -57 32 -90
q13 -21 16 -42l16 -37q39 2 68 -10q-8 -16 -21 -11q-7 -48 -16 -79q22 -40 27 -74l10 -16l5 -15l6 -16q39 -81 47 -143q32 -39 32 -79q37 -61 42 -116h26h22h89h58h21h90h16h63l6 16l5 21l10 16l11 37l16 37q17 72 47 116l-10 52q-28 -8 -48 0q-12 62 21 64v21q-6 5 -5 10
q-22 49 -32 85l-15 37q-16 29 -22 53l-10 26l-11 26l-5 27q-9 13 -10 26l-11 21q-26 63 -32 111q-8 14 -10 26l-11 21q-19 41 -26 74l-11 16l-5 27l-5 15l-11 11v16q-13 20 -16 42l-42 116q-21 9 -32 26q-16 -36 -21 11q5 34 21 53q-22 48 -31 84q-39 92 -42 164
q51 58 116 79q1 54 -6 90q-39 16 -68 21h-37h-106h-37h-31h-27h-31h-21h-95h-59h-21h-21h-21h-21h-90h-16h-63q-73 -32 -79 -101zM1327 1777q-10 -40 -21 -64q-15 -47 -5 -84l-11 -21q22 -19 27 -37q-36 -28 -64 -32q-11 -72 -31 -121q21 -41 26 -79q-31 -10 -58 -11v-21
l-10 -16l-6 -16l-5 -37l-5 -15l-6 -16l-26 -85l16 -16v-15q8 -20 10 -37q14 -26 16 -42l37 -85l5 16l11 16l5 16l6 10q20 71 42 111q28 -40 31 -79l11 -16v-16q6 -8 5 -16l6 -21l10 -10l5 -16l48 -122q35 54 58 0q-6 -34 -42 -42q23 -38 31 -74l6 -31q6 -6 5 -11q6 -5 5 -10
l6 -16l26 -64l32 -68l5 -32l5 -21q26 -43 37 -74v-16l16 -37l10 -42q16 -30 22 -58q42 7 68 -21q-5 -36 -37 -47l11 -32h53h21h21h16h21h95l5 16l5 16l6 21l5 21l5 10l5 11l6 16q24 49 31 89q-20 42 -10 85q22 35 42 5l5 11q33 82 37 142q-20 31 -21 64l-21 47l-5 21
q-16 40 -32 58v16q-17 40 -21 63q-62 -1 -74 53q31 18 42 42q-11 17 -16 32l-15 32l-6 31l-10 11v16q-24 46 -27 89q-20 26 -21 53l-10 21l-6 11q-13 22 -15 42l-11 32q-24 39 -26 84l-11 16l-5 16q-9 5 -11 10l-10 42q-31 59 -37 106q-27 48 -32 90q-9 5 -10 10
q-27 -12 -43 0q-1 43 21 69l-21 68l-21 6h-21h-21h-16h-21h-16h-21h-95h-5h5h-10h5h-11h6h-6v-21zM2034 1729l32 -37q156 -41 153 -185q27 -11 27 -36v-16q-37 -14 -58 -37v-27l-27 -63l-16 -58q-10 -43 -21 -69l-5 -26l-5 -16l-6 -21q-9 -21 -26 -37l-5 -37l-37 -132l10 -5
l6 -10v-16q6 -6 5 -11l21 -68q29 4 53 -6q3 32 31 27l11 37q13 49 32 79v16l15 42q16 80 48 137q-22 50 -11 95q23 2 37 -11v16l11 11l10 37l6 16v15l10 16l6 21l5 11q9 28 16 42l16 37l5 11q30 82 74 131q71 67 147 90l11 63q-80 80 -174 16l-5 -26h-16q-31 18 -37 53h-27
h-68h-21h-90h-16h-63q-47 -29 -64 -69zM493 1613q10 13 22 16q-9 21 -6 37q68 -50 -16 -53zM1581 1128l21 -16q-30 -28 -42 16h-27q8 48 5 84q93 -60 43 -84zM736 964q-25 -150 -37 5z" />
    <glyph glyph-name="x" unicode="x" horiz-adv-x="1971" 
d="M145 1694l11 -10l11 -6l15 -5l91 -58l10 -16l6 -16l21 -37q35 -35 47 -74q13 -20 27 -32l58 -117q38 -33 53 -69q9 24 22 37q15 -36 37 -47q-3 -22 -22 -16q5 -28 0 -48l27 -27l16 -31l16 -37l21 -27l21 -21l11 -27q11 -14 16 -26l16 -27q49 -57 69 -116l10 -11
q20 -31 37 -48l11 -21l11 -16q24 -46 47 -74l11 -21l5 -11l6 -16q9 -5 10 -10l11 -11l5 -11l5 -10l6 -11q35 -42 53 -79q18 12 37 10q19 45 63 32q-14 -21 -37 -21q-10 -50 -26 -80l10 -5l6 -21q45 -63 63 -112q-39 -69 -100 -100q11 -50 31 -80q34 -1 59 -16h74h16h26h16
h22h15h107q12 37 37 59q50 -24 79 -59h16h21h22h15h59h21h16h37q71 -1 117 6q26 11 47 10q24 41 27 80q-23 16 -37 32l-16 5l-5 10q-46 18 -75 38l-5 15q-32 37 -48 64q-22 52 -47 85q-12 14 -16 26q-16 -46 -85 27q6 22 16 37q-50 47 0 64l-27 26q-19 29 -26 59
q-42 40 -53 84q-6 6 -6 11q-35 30 -53 64q-14 42 -37 69l-37 63l-37 69l-11 16l-26 32l-11 16l-5 16q-9 5 -11 10l-16 37q-41 48 -58 90q-15 10 -21 22h-27q-33 36 -16 79l-15 16l-6 21q-20 22 -32 43l-5 10l-10 32q-19 13 -27 32l-48 74q1 31 6 53q87 41 74 127h-16
q-40 23 -80 27h-26h-90h-22h-26h-69h-21h-90h-16h-64q8 -39 -32 -42q8 -23 -16 -32q-5 37 -31 53v21h-27h-16h-21h-16h-106q-79 -25 -80 -101zM1291 1668q97 -36 106 -133q-17 -39 -42 -58q-43 -88 -101 -138q37 -92 95 -148q50 106 128 164q-18 28 -11 53q51 38 90 53
q134 170 313 239q2 42 -5 74q-46 9 -75 21h-69h-21h-90h-16h-63q-17 -36 -43 -42q-30 14 -37 42h-21h-16h-21h-96q-101 -69 -5 -127zM1551 1615l10 47q77 -32 -10 -47zM697 1530q-63 12 -5 74q40 -34 5 -74zM989 952q13 -70 -38 -80q6 49 -10 85l21 11q16 -5 27 -16z
M644 735l-11 -22l-16 -21q-25 -27 -37 -48q-19 -26 -37 -42l-11 -16l-26 -48l-16 -16l-42 -42q-40 -66 -80 -101q28 -37 -5 -58q-1 -27 -6 -42q-26 8 -26 31q-39 -17 -64 -37l-42 -21q-59 -28 -106 -32q-16 -21 -32 -32q10 -115 207 -90q1 26 10 43q33 -23 64 -21l16 -22h58
h53h37q55 -1 91 6q46 2 79 10q19 58 6 106q-81 19 -133 64q-14 57 0 101l-16 37q28 31 58 16l6 16l10 10l11 16l10 11l80 100q-8 28 -21 48l-5 11l-11 10l-5 16q-28 31 -43 59h-5h5h-5z" />
    <glyph glyph-name="y" unicode="y" horiz-adv-x="1956" 
d="M91 1713q135 -71 176 -198q28 -31 38 -64q42 -5 69 -22q5 -46 -16 -80l11 -11l48 -101q15 -24 22 -43q34 -39 42 -80q42 -55 54 -107q18 1 32 -5q30 19 59 16q14 -64 -32 -97l5 -37q9 -5 11 -11q9 -5 10 -10q15 -22 17 -43q6 -6 5 -11l32 -48v-214q36 -30 21 -64
q34 -4 32 -32q-17 -41 -53 -38v-58l-5 -16q-1 -41 -11 -70l-32 -27q-125 10 -145 -101q22 -16 32 -32q42 -2 70 -11h21h16h107h16h97h16h166q35 9 53 32l32 5q20 -16 22 -37h42h16h16h166l75 43q-31 117 -150 101q-17 19 -32 27l-5 16q-8 31 -5 54v16v26v16v22v16v107
q-58 41 -49 112q12 37 49 43v91l-6 96q-21 37 -27 64l-10 6q-45 62 -64 106q-38 -8 -49 22q-14 -4 -21 0q6 29 21 48v27q-13 10 -21 21l-5 21l-16 22l-6 21q-6 6 -5 11q-26 34 -37 64l-17 27q-23 40 -32 75l-16 10l-5 22l-11 16q-6 5 -5 11q-9 5 -11 10q-19 50 -43 80
q0 43 6 75q122 34 80 145h-16l-37 5l-11 5h-16h-70q-20 -26 -48 -32q-31 10 -37 32h-32h-27h-21h-97h-21h-22h-21h-91h-16h-64q15 -25 -11 -32q-28 4 -43 -16q-24 20 -10 48h-16h-64q-60 -30 -70 -85zM1337 1665q62 -25 102 -59q7 21 21 32q8 -33 5 -59l-21 -11q8 -39 5 -69
l-21 -54q-19 -23 -27 -42q-20 -58 -53 -91q-30 -81 -75 -129q1 -31 5 -53l16 -16l27 -64q27 -26 37 -54l6 27l11 11l5 10q22 50 48 81q16 37 32 58l5 16l33 43q10 27 21 43l5 11l11 10q30 86 80 139q-47 -1 -16 65q31 19 59 16q86 129 235 160q13 43 11 80q-149 77 -273 -10
q-45 3 -48 42h-59h-26h-16h-22h-16h-107q-135 -74 0 -133zM578 1568q-36 -34 -32 59q65 -1 32 -59zM936 413q-9 -97 -91 -32l38 6q-14 27 16 43z" />
    <glyph glyph-name="z" unicode="z" horiz-adv-x="1675" 
d="M97 1737v-192q35 3 54 -21q-21 -37 -54 -43q-1 -102 6 -165q58 -30 112 -32q20 22 37 32q76 237 293 304l5 11q35 22 48 47q38 6 43 -26h16q52 17 95 16v16l6 10l5 11l11 11l42 85h-74h-16h-27h-16h-21h-16h-107q-4 -40 -42 -37q-28 14 -43 37h-58h-22h-21h-21h-22h-90
h-16h-64q-3 -49 -43 -64zM955 1774l-11 -32l-16 -26l-16 -27l-16 -27q-16 -50 -42 -79q-19 -42 -38 -70l-5 -21q-19 -37 -43 -59l-5 -21l-5 -16l-11 -11q-29 -73 -64 -117l-5 -16l-21 -32q-26 -63 -59 -101q20 -10 32 -27l-11 -31l-53 -6q-29 -73 -69 -117q31 -37 10 -75
q-32 -18 -58 -21q-13 -37 -32 -58l-11 -16l-5 -16q-31 -58 -43 -96l-16 -22q-27 -36 -37 -69l-53 -80q53 -20 10 -48v-16q9 -21 6 -42q-29 -11 -27 16h-32l-5 -16l-5 -11l-27 -32q-18 -56 -53 -91v-31q-8 -22 -6 -43q-8 -37 -5 -64l16 -11h21h16h27h16h21h16h107q48 0 80 11
q-11 30 10 53q25 -17 27 -42q27 1 32 -22h16h165l5 11q22 61 48 96q-19 34 -11 69q65 25 96 80l22 48l10 21l11 11l5 16q11 23 27 37q17 53 48 85q11 37 32 59q-10 27 0 43q-9 9 -11 21q34 51 80 64l5 16l6 11q18 25 26 42q19 41 43 64q14 52 37 85l-26 16q22 53 69 54
l11 21l5 21l16 16l10 16l27 69l11 16l5 11l27 27q12 44 32 69q-11 31 -11 53q32 25 59 32q1 14 5 21l16 11l5 16l6 16l10 11l6 10q15 40 31 64q27 64 64 102q22 122 -74 127l-11 27h-16h-96h-16h-165q-19 -23 -42 -21l-6 -16q-29 12 -37 37h-96zM1168 1481q-15 -18 -37 -16
q-17 -82 -22 -10q-24 1 -37 16q-10 14 0 26q22 -9 37 6zM1392 405q-39 -13 -70 6q-181 -194 -426 -187l-5 -32l-11 -5q-20 -50 -42 -80l5 -11h53h22h21h16h21h96q41 25 80 27l27 -27h21h90h59h21h91h16h64q18 26 21 54q57 34 0 143q-2 54 27 54v21v53v22v21l-6 133
q-55 30 -106 32q-121 -108 -85 -224z" />
    <glyph glyph-name="braceleft" unicode="{" horiz-adv-x="2393" 
d="M1014 757l-5 -186q-6 -57 30 -93l-15 -28q22 -43 -15 -60v-420q18 -22 15 -49l15 -11q-7 -29 -30 -22v-120h70h25h154h69h59h15q68 -4 114 5v170v77v16v28v16v21v16v109q-30 15 -34 50q6 38 34 49v44q0 202 175 202h59q-2 31 21 48q11 -12 14 -27q36 7 55 -21h24h21h25
h19h25h65h20h84h15h59q9 22 21 37q47 5 59 -37h84h15h60l5 37v78v16v98v71v21v93v16v67l-5 26h-14h-16h-154q42 -50 -34 -43l-11 22q-26 -7 -34 21h-35h-30h-25h-30h-19h-90h-55h-19h-21h-19h-21h-84h-15h-59q-1 -25 -25 -33q-36 7 -60 33h-50l-85 -25l-45 21l-136 -9
q-230 -68 -235 -324z" />
    <glyph glyph-name="bar" unicode="|" horiz-adv-x="1561" 
d="M977 1880v-170q21 -15 31 -37l-5 -28q-12 -12 -26 -16v-537l4 -136l-4 -387q-6 -57 31 -93l-16 -28q23 -44 -15 -60v-421q19 -21 15 -49l16 -11q-7 -29 -31 -22v-120h72h26h159h72h61h15q70 -4 118 5v170v77v16v28v16v21v17v109q-32 15 -35 50q6 38 35 49v44v16v16v170
v523v95v21v27v72v21v93v16v65q-33 36 -35 77q7 37 35 34v70v22v93v17v65l-25 11h-88h-20h-20h-17h-91h-68h-20h-87h-15h-62q-5 -10 -10 -11zM1249 1377q-26 -7 -30 23q21 21 35 43q49 -30 -5 -66z" />
    <glyph glyph-name="braceright" unicode="}" horiz-adv-x="2100" 
d="M836 1083h-24h-20h-87h-19h-20h-18h-83h-14h-59q-21 -31 -48 -16q-9 -11 -20 -16l-39 32h-62h-82h-63h-68h-15h-67l-64 6l-10 -22v-383q-5 -60 -4 -98l20 -26h14l9 5h15h20h86q5 21 20 27l9 -6q9 -5 10 -10q31 9 54 -11h53h49h14h39h38h53q23 16 45 11l33 16
q11 -12 14 -27h68h53h25h14q126 -56 129 -163q66 -49 2 -121v-311q18 -21 15 -49l14 -11q-6 -28 -29 -21v-119h68h25h150h67h58h14q66 -4 112 5v169v75v16v28v16v21v16v108q-30 15 -34 49q6 38 34 49v43v16v16v168l4 217q-88 218 -287 281zM468 835q-9 -31 -38 -27
q-51 -69 -25 38q39 3 63 -11z" />
    <glyph glyph-name="asciitilde" unicode="~" 
 />
    <glyph glyph-name="Adieresis" unicode="&#xc4;" horiz-adv-x="609" 
 />
    <glyph glyph-name="Aring" unicode="&#xc5;" horiz-adv-x="609" 
 />
    <glyph glyph-name="Ccedilla" unicode="&#xc7;" horiz-adv-x="729" 
 />
    <glyph glyph-name="Eacute" unicode="&#xc9;" horiz-adv-x="648" 
 />
    <glyph glyph-name="Ntilde" unicode="&#xd1;" horiz-adv-x="612" 
 />
    <glyph glyph-name="Odieresis" unicode="&#xd6;" horiz-adv-x="696" 
 />
    <glyph glyph-name="Udieresis" unicode="&#xdc;" horiz-adv-x="660" 
 />
    <glyph glyph-name="aacute" unicode="&#xe1;" horiz-adv-x="369" 
 />
    <glyph glyph-name="agrave" unicode="&#xe0;" horiz-adv-x="369" 
 />
    <glyph glyph-name="acircumflex" unicode="&#xe2;" horiz-adv-x="369" 
 />
    <glyph glyph-name="adieresis" unicode="&#xe4;" horiz-adv-x="369" 
 />
    <glyph glyph-name="atilde" unicode="&#xe3;" horiz-adv-x="369" 
 />
    <glyph glyph-name="aring" unicode="&#xe5;" horiz-adv-x="369" 
 />
    <glyph glyph-name="ccedilla" unicode="&#xe7;" horiz-adv-x="510" 
 />
    <glyph glyph-name="eacute" unicode="&#xe9;" horiz-adv-x="486" 
 />
    <glyph glyph-name="egrave" unicode="&#xe8;" horiz-adv-x="486" 
 />
    <glyph glyph-name="ecircumflex" unicode="&#xea;" horiz-adv-x="486" 
 />
    <glyph glyph-name="edieresis" unicode="&#xeb;" horiz-adv-x="486" 
 />
    <glyph glyph-name="iacute" unicode="&#xed;" horiz-adv-x="234" 
 />
    <glyph glyph-name="igrave" unicode="&#xec;" horiz-adv-x="234" 
 />
    <glyph glyph-name="icircumflex" unicode="&#xee;" horiz-adv-x="234" 
 />
    <glyph glyph-name="idieresis" unicode="&#xef;" horiz-adv-x="234" 
 />
    <glyph glyph-name="ntilde" unicode="&#xf1;" horiz-adv-x="384" 
 />
    <glyph glyph-name="oacute" unicode="&#xf3;" horiz-adv-x="366" 
 />
    <glyph glyph-name="ograve" unicode="&#xf2;" horiz-adv-x="366" 
 />
    <glyph glyph-name="ocircumflex" unicode="&#xf4;" horiz-adv-x="366" 
 />
    <glyph glyph-name="odieresis" unicode="&#xf6;" horiz-adv-x="366" 
 />
    <glyph glyph-name="otilde" unicode="&#xf5;" horiz-adv-x="366" 
 />
    <glyph glyph-name="uacute" unicode="&#xfa;" horiz-adv-x="342" 
 />
    <glyph glyph-name="ugrave" unicode="&#xf9;" horiz-adv-x="342" 
 />
    <glyph glyph-name="ucircumflex" unicode="&#xfb;" horiz-adv-x="342" 
 />
    <glyph glyph-name="udieresis" unicode="&#xfc;" horiz-adv-x="342" 
 />
    <glyph glyph-name="dagger" unicode="&#x2020;" horiz-adv-x="451" 
 />
    <glyph glyph-name="degree" unicode="&#xb0;" horiz-adv-x="285" 
 />
    <glyph glyph-name="cent" unicode="&#xa2;" 
 />
    <glyph glyph-name="sterling" unicode="&#xa3;" 
 />
    <glyph glyph-name="section" unicode="&#xa7;" horiz-adv-x="420" 
 />
    <glyph glyph-name="bullet" unicode="&#x2022;" horiz-adv-x="387" 
 />
    <glyph glyph-name="paragraph" unicode="&#xb6;" horiz-adv-x="450" 
 />
    <glyph glyph-name="germandbls" unicode="&#xdf;" horiz-adv-x="498" 
 />
    <glyph glyph-name="registered" unicode="&#xae;" horiz-adv-x="747" 
 />
    <glyph glyph-name="copyright" unicode="&#xa9;" horiz-adv-x="714" 
 />
    <glyph glyph-name="trademark" unicode="&#x2122;" horiz-adv-x="681" 
 />
    <glyph glyph-name="acute" unicode="&#xb4;" horiz-adv-x="462" 
 />
    <glyph glyph-name="dieresis" unicode="&#xa8;" horiz-adv-x="371" 
 />
    <glyph glyph-name="AE" unicode="&#xc6;" horiz-adv-x="819" 
 />
    <glyph glyph-name="Oslash" unicode="&#xd8;" horiz-adv-x="696" 
 />
    <glyph glyph-name="plusminus" unicode="&#xb1;" 
 />
    <glyph glyph-name="yen" unicode="&#xa5;" 
 />
    <glyph glyph-name="mu" unicode="&#xb5;" horiz-adv-x="420" 
 />
    <glyph glyph-name="mu" unicode="&#x3bc;" horiz-adv-x="420" 
 />
    <glyph glyph-name="ordfeminine" unicode="&#xaa;" horiz-adv-x="402" 
 />
    <glyph glyph-name="ordmasculine" unicode="&#xba;" horiz-adv-x="402" 
 />
    <glyph glyph-name="ae" unicode="&#xe6;" horiz-adv-x="747" 
 />
    <glyph glyph-name="oslash" unicode="&#xf8;" horiz-adv-x="366" 
 />
    <glyph glyph-name="questiondown" unicode="&#xbf;" horiz-adv-x="567" 
 />
    <glyph glyph-name="exclamdown" unicode="&#xa1;" horiz-adv-x="309" 
 />
    <glyph glyph-name="logicalnot" unicode="&#xac;" horiz-adv-x="1395" 
 />
    <glyph glyph-name="florin" unicode="&#x192;" horiz-adv-x="576" 
 />
    <glyph glyph-name="guillemotleft" unicode="&#xab;" horiz-adv-x="540" 
 />
    <glyph glyph-name="guillemotright" unicode="&#xbb;" horiz-adv-x="540" 
 />
    <glyph glyph-name="ellipsis" unicode="&#x2026;" horiz-adv-x="792" 
 />
    <glyph glyph-name="nonbreakingspace" unicode="&#xa0;" horiz-adv-x="498" 
 />
    <glyph glyph-name="Agrave" unicode="&#xc0;" horiz-adv-x="609" 
 />
    <glyph glyph-name="Atilde" unicode="&#xc3;" horiz-adv-x="609" 
 />
    <glyph glyph-name="Otilde" unicode="&#xd5;" horiz-adv-x="696" 
 />
    <glyph glyph-name="OE" unicode="&#x152;" horiz-adv-x="954" 
 />
    <glyph glyph-name="oe" unicode="&#x153;" horiz-adv-x="756" 
 />
    <glyph glyph-name="endash" unicode="&#x2013;" horiz-adv-x="684" 
 />
    <glyph glyph-name="emdash" unicode="&#x2014;" horiz-adv-x="894" 
 />
    <glyph glyph-name="quotedblleft" unicode="&#x201c;" horiz-adv-x="342" 
 />
    <glyph glyph-name="quotedblright" unicode="&#x201d;" horiz-adv-x="300" 
 />
    <glyph glyph-name="quoteleft" unicode="&#x2018;" horiz-adv-x="237" 
 />
    <glyph glyph-name="quoteright" unicode="&#x2019;" horiz-adv-x="240" 
 />
    <glyph glyph-name="divide" unicode="&#xf7;" 
 />
    <glyph glyph-name="ydieresis" unicode="&#xff;" horiz-adv-x="393" 
 />
    <glyph glyph-name="Ydieresis" unicode="&#x178;" horiz-adv-x="526" 
 />
    <glyph glyph-name="currency" unicode="&#xa4;" horiz-adv-x="420" 
 />
    <glyph glyph-name="guilsinglleft" unicode="&#x2039;" horiz-adv-x="321" 
 />
    <glyph glyph-name="guilsinglright" unicode="&#x203a;" horiz-adv-x="321" 
 />
    <glyph glyph-name="daggerdbl" unicode="&#x2021;" horiz-adv-x="336" 
 />
    <glyph glyph-name="periodcentered" unicode="&#xb7;" horiz-adv-x="207" 
 />
    <glyph glyph-name="periodcentered" unicode="&#x2219;" horiz-adv-x="207" 
 />
    <glyph glyph-name="quotesinglbase" unicode="&#x201a;" horiz-adv-x="234" 
 />
    <glyph glyph-name="quotedblbase" unicode="&#x201e;" horiz-adv-x="402" 
 />
    <glyph glyph-name="perthousand" unicode="&#x2030;" horiz-adv-x="729" 
 />
    <glyph glyph-name="Acircumflex" unicode="&#xc2;" horiz-adv-x="609" 
 />
    <glyph glyph-name="Ecircumflex" unicode="&#xca;" horiz-adv-x="648" 
 />
    <glyph glyph-name="Aacute" unicode="&#xc1;" horiz-adv-x="609" 
 />
    <glyph glyph-name="Edieresis" unicode="&#xcb;" horiz-adv-x="648" 
 />
    <glyph glyph-name="Egrave" unicode="&#xc8;" horiz-adv-x="648" 
 />
    <glyph glyph-name="Iacute" unicode="&#xcd;" horiz-adv-x="234" 
 />
    <glyph glyph-name="Icircumflex" unicode="&#xce;" horiz-adv-x="234" 
 />
    <glyph glyph-name="Idieresis" unicode="&#xcf;" horiz-adv-x="234" 
 />
    <glyph glyph-name="Igrave" unicode="&#xcc;" horiz-adv-x="234" 
 />
    <glyph glyph-name="Oacute" unicode="&#xd3;" horiz-adv-x="696" 
 />
    <glyph glyph-name="Ocircumflex" unicode="&#xd4;" horiz-adv-x="696" 
 />
    <glyph glyph-name="Ograve" unicode="&#xd2;" horiz-adv-x="696" 
 />
    <glyph glyph-name="Uacute" unicode="&#xda;" horiz-adv-x="660" 
 />
    <glyph glyph-name="Ucircumflex" unicode="&#xdb;" horiz-adv-x="660" 
 />
    <glyph glyph-name="Ugrave" unicode="&#xd9;" horiz-adv-x="660" 
 />
    <glyph glyph-name="circumflex" unicode="&#x2c6;" horiz-adv-x="360" 
 />
    <glyph glyph-name="tilde" unicode="&#x2dc;" horiz-adv-x="483" 
 />
    <glyph glyph-name="macron" unicode="&#xaf;" horiz-adv-x="360" 
 />
    <glyph glyph-name="macron" unicode="&#x2c9;" horiz-adv-x="360" 
 />
    <glyph glyph-name="cedilla" unicode="&#xb8;" horiz-adv-x="321" 
 />
    <glyph glyph-name="Scaron" unicode="&#x160;" horiz-adv-x="621" 
 />
    <glyph glyph-name="scaron" unicode="&#x161;" horiz-adv-x="342" 
 />
    <glyph glyph-name="brokenbar" unicode="&#xa6;" horiz-adv-x="201" 
 />
    <glyph glyph-name="Eth" unicode="&#xd0;" horiz-adv-x="663" 
 />
    <glyph glyph-name="eth" unicode="&#xf0;" horiz-adv-x="483" 
 />
    <glyph glyph-name="Yacute" unicode="&#xdd;" horiz-adv-x="526" 
 />
    <glyph glyph-name="yacute" unicode="&#xfd;" horiz-adv-x="393" 
 />
    <glyph glyph-name="Thorn" unicode="&#xde;" horiz-adv-x="576" 
 />
    <glyph glyph-name="thorn" unicode="&#xfe;" horiz-adv-x="348" 
 />
    <glyph glyph-name="minus" unicode="&#xad;" 
 />
    <glyph glyph-name="minus" unicode="&#x2212;" 
 />
    <glyph glyph-name="multiply" unicode="&#xd7;" 
 />
    <glyph glyph-name="onesuperior" unicode="&#xb9;" horiz-adv-x="300" 
 />
    <glyph glyph-name="twosuperior" unicode="&#xb2;" horiz-adv-x="300" 
 />
    <glyph glyph-name="threesuperior" unicode="&#xb3;" horiz-adv-x="300" 
 />
    <glyph glyph-name="onehalf" unicode="&#xbd;" horiz-adv-x="786" 
 />
    <glyph glyph-name="onequarter" unicode="&#xbc;" horiz-adv-x="786" 
 />
    <glyph glyph-name="threequarters" unicode="&#xbe;" horiz-adv-x="786" 
 />
    <glyph glyph-name="Lslash" unicode="&#x141;" horiz-adv-x="570" 
 />
    <glyph glyph-name="lslash" unicode="&#x142;" horiz-adv-x="213" 
 />
    <glyph glyph-name="Zcaron" unicode="&#x17d;" horiz-adv-x="690" 
 />
    <glyph glyph-name="zcaron" unicode="&#x17e;" horiz-adv-x="462" 
 />
    <glyph glyph-name="notequal" unicode="&#x2260;" 
 />
    <glyph glyph-name="infinity" unicode="&#x221e;" horiz-adv-x="669" 
 />
    <glyph glyph-name="lessequal" unicode="&#x2264;" horiz-adv-x="342" 
 />
    <glyph glyph-name="greaterequal" unicode="&#x2265;" horiz-adv-x="342" 
 />
    <glyph glyph-name="partialdiff" unicode="&#x2202;" horiz-adv-x="483" 
 />
    <glyph glyph-name="summation" unicode="&#x2211;" horiz-adv-x="1398" 
 />
    <glyph glyph-name="product" unicode="&#x220f;" horiz-adv-x="798" 
 />
    <glyph glyph-name="pi" unicode="&#x3c0;" horiz-adv-x="798" 
 />
    <glyph glyph-name="integral" unicode="&#x222b;" horiz-adv-x="1398" 
 />
    <glyph glyph-name="Omega" unicode="&#x3a9;" horiz-adv-x="1443" 
 />
    <glyph glyph-name="Omega" unicode="&#x2126;" horiz-adv-x="1443" 
 />
    <glyph glyph-name="radical" unicode="&#x221a;" horiz-adv-x="819" 
 />
    <glyph glyph-name="approxequal" unicode="&#x2248;" 
 />
    <glyph glyph-name="approxequal" unicode="&#x22f2;" 
 />
    <glyph glyph-name="Delta" unicode="&#x394;" horiz-adv-x="366" 
 />
    <glyph glyph-name="Delta" unicode="&#x2206;" horiz-adv-x="366" 
 />
    <glyph glyph-name="lozenge" unicode="&#x25ca;" horiz-adv-x="243" 
 />
    <glyph glyph-name="fraction" unicode="&#x2044;" horiz-adv-x="234" 
 />
    <glyph glyph-name="fi" unicode="&#xf001;" horiz-adv-x="525" 
 />
    <glyph glyph-name="fl" unicode="&#xf002;" horiz-adv-x="480" 
 />
    <glyph glyph-name="apple" unicode="&#xf000;" horiz-adv-x="588" 
 />
    <glyph glyph-name="dotlessi" unicode="&#x131;" horiz-adv-x="234" 
 />
    <glyph glyph-name="breve" unicode="&#x2d8;" horiz-adv-x="360" 
 />
    <glyph glyph-name="dotaccent" unicode="&#x2d9;" horiz-adv-x="183" 
 />
    <glyph glyph-name="ring" unicode="&#x2da;" horiz-adv-x="360" 
 />
    <glyph glyph-name="hungarumlaut" unicode="&#x2dd;" horiz-adv-x="468" 
 />
    <glyph glyph-name="ogonek" unicode="&#x2db;" horiz-adv-x="270" 
 />
    <glyph glyph-name="caron" unicode="&#x2c7;" horiz-adv-x="360" 
 />
  </font>
</defs>
</svg>
